<svg width="53" height="55" viewBox="0 0 53 55" fill="none" xmlns="http://www.w3.org/2000/svg">
<path d="M21.8902 42.4407C21.8902 42.4407 21.8902 51.4029 22.9702 52.6832C24.0502 53.9636 34.1102 56.988 37.7802 53.0361C37.7802 53.0361 38.3202 47.2192 37.5602 43.4891C36.8002 39.759 21.8802 42.4407 21.8802 42.4407H21.8902Z" fill="black"/>
<path d="M36.6303 23.8532C36.6303 23.8532 21.3403 19.6493 19.0403 47.0201C19.0403 47.0201 25.8703 53.3914 40.8303 48.5121C40.8303 48.5121 37.3403 35.5677 39.7203 30.6279L36.6303 23.8532Z" fill="#00A79D" stroke="black" stroke-miterlimit="10"/>
<path d="M19.2302 28.7818C18.3602 28.8121 17.3602 29.79 16.7902 30.2839C15.7802 31.1711 14.8302 32.1187 13.9602 33.147C12.0502 35.4052 10.3902 38.2078 10.4202 41.2625C10.4202 41.7766 10.4802 42.2807 10.5802 42.7747C10.5802 42.8049 10.5902 42.8352 10.6002 42.8654C10.9502 44.2062 11.9802 45.8797 13.6102 45.5168C14.6402 45.295 15.5602 44.6195 16.1002 43.7021C16.9402 42.2706 16.7802 40.4963 16.8102 38.8329C16.8502 36.4436 17.5902 34.5786 19.0002 32.6833C19.5002 32.0179 20.5502 31.282 20.6302 30.3948C20.6502 30.1529 20.5902 29.9109 20.4902 29.6892C20.3102 29.3161 19.9102 28.8625 19.4802 28.7818C19.4102 28.7718 19.3302 28.7617 19.2502 28.7718L19.2302 28.7818Z" fill="#9E1F63" stroke="black" stroke-miterlimit="10"/>
<path d="M13.6003 45.3646C15.0804 45.3646 16.2803 43.7352 16.2803 41.7253C16.2803 39.7153 15.0804 38.0859 13.6003 38.0859C12.1202 38.0859 10.9203 39.7153 10.9203 41.7253C10.9203 43.7352 12.1202 45.3646 13.6003 45.3646Z" fill="black"/>
<path d="M16.5403 41.2122C16.6103 41.2021 16.6703 41.1921 16.7403 41.182C17.1103 41.1114 17.4803 41.0207 17.7903 41.303C17.9803 41.4844 18.0603 41.7566 18.0603 42.0288C18.0603 42.8656 17.3703 43.6519 16.5403 43.7326C15.8203 43.8031 15.3103 43.4604 14.6503 43.8636C12.7303 45.033 10.2403 43.5813 9.11033 41.9381C8.49033 41.0409 8.26033 39.942 8.18033 38.8633C8.09033 37.6334 9.43033 36.5547 10.4003 36.0809C11.2503 35.6675 12.2703 35.4155 13.2203 35.5465C14.1703 35.6675 14.6203 36.1817 15.0703 36.968C15.2003 37.1999 15.3503 37.4317 15.4103 37.6838C15.6703 38.7625 14.3203 38.5206 13.9703 39.2062C13.7203 39.7001 14.2303 40.3756 14.4803 40.7788C14.7003 41.1317 14.9103 41.2627 15.3203 41.2829C15.7303 41.293 16.1403 41.2828 16.5503 41.2122H16.5403Z" fill="#8DC63F" stroke="black" stroke-width="0.93" stroke-miterlimit="10"/>
<path opacity="0.51" d="M16.6202 41.3322C16.3002 41.3624 15.9802 41.3825 15.6502 41.3724C15.1902 41.3523 14.9502 41.201 14.7102 40.8079C14.4302 40.3542 13.8502 39.5981 14.1402 39.0336C14.4102 38.4992 15.2002 38.4489 15.5802 38.086L15.4202 37.834C15.4202 37.834 12.9902 39.4067 10.7402 39.9006C10.7402 39.9006 12.1002 42.3806 13.4302 42.2294C14.3102 42.1286 15.7402 41.6446 16.6202 41.322V41.3322Z" fill="black"/>
<path d="M41.3903 31.0104C42.2603 31.0406 43.2603 32.0185 43.8303 32.5125C44.8403 33.3996 45.7903 34.3474 46.6603 35.3757C48.5703 37.6339 50.2303 40.4364 50.2003 43.491C50.2003 44.0051 50.1403 44.5092 50.0403 45.0032C50.0403 45.0334 50.0303 45.0637 50.0203 45.0939C49.6703 46.4347 48.6403 48.1082 47.0103 47.7453C45.9803 47.5235 45.0603 46.8481 44.5203 45.9307C43.6803 44.4991 43.8403 42.7248 43.8103 41.0614C43.7703 38.6721 43.0303 36.8071 41.6203 34.9118C41.1203 34.2464 40.0703 33.5105 39.9903 32.6234C39.9703 32.3814 40.0303 32.1395 40.1303 31.9177C40.3103 31.5447 40.7103 31.091 41.1403 31.0104C41.2103 31.0003 41.2903 30.9902 41.3703 31.0003L41.3903 31.0104Z" fill="#9E1F63" stroke="black" stroke-miterlimit="10"/>
<path d="M47.0202 47.5932C48.5003 47.5932 49.7002 45.9638 49.7002 43.9538C49.7002 41.9439 48.5003 40.3145 47.0202 40.3145C45.5401 40.3145 44.3402 41.9439 44.3402 43.9538C44.3402 45.9638 45.5401 47.5932 47.0202 47.5932Z" fill="black"/>
<path d="M44.0804 43.4407C44.0104 43.4307 43.9503 43.4206 43.8803 43.4105C43.5103 43.3399 43.1404 43.2492 42.8304 43.5315C42.6404 43.7129 42.5603 43.9851 42.5603 44.2573C42.5603 45.0941 43.2504 45.8804 44.0804 45.9611C44.8004 46.0316 45.3104 45.6889 45.9704 46.0921C47.8904 47.2616 50.3803 45.8099 51.5103 44.1666C52.1303 43.2694 52.3603 42.1705 52.4403 41.0918C52.5303 39.8619 51.1904 38.7832 50.2204 38.3094C49.3704 37.896 48.3503 37.644 47.4003 37.7751C46.4503 37.896 46.0003 38.4102 45.5503 39.1965C45.4203 39.4284 45.2703 39.6603 45.2103 39.9123C44.9503 40.991 46.3003 40.749 46.6503 41.4346C46.9003 41.9286 46.3904 42.604 46.1404 43.0073C45.9204 43.3601 45.7103 43.4912 45.3003 43.5113C44.8903 43.5214 44.4803 43.5113 44.0703 43.4407H44.0804Z" fill="#8DC63F" stroke="black" stroke-width="0.93" stroke-miterlimit="10"/>
<path opacity="0.51" d="M44.0004 43.5608C44.3204 43.5911 44.6404 43.6111 44.9704 43.601C45.4304 43.5809 45.6703 43.4297 45.9103 43.0365C46.1903 42.5828 46.7703 41.8267 46.4803 41.2622C46.2103 40.7279 45.4203 40.6775 45.0403 40.3145L45.2003 40.0625C45.2003 40.0625 47.6303 41.6352 49.8803 42.1292C49.8803 42.1292 48.5203 44.6092 47.1903 44.4579C46.3103 44.3571 44.8804 43.8733 44.0004 43.5507V43.5608Z" fill="black"/>
<path d="M30.2102 47.0989C31.3002 47.0686 32.3902 46.8368 33.4502 46.5948C34.0002 46.4738 35.4902 46.2621 35.7702 45.7379C36.2902 44.7701 35.7702 43.5603 35.5102 42.6026C35.2202 41.534 35.1202 40.4251 35.1502 39.3161C35.2102 37.0478 35.8002 34.8199 36.5402 32.6826C36.6002 32.5112 36.6602 32.3399 36.6702 32.1584C36.6902 31.6342 36.2702 31.2108 35.8502 30.8882C33.0002 28.7207 28.8102 28.519 25.7702 30.4143C25.4302 30.626 25.1102 30.8579 24.8502 31.1704C24.4802 31.614 24.2802 32.1685 24.1102 32.7129C23.7202 33.973 23.4402 35.2735 23.2302 36.574C23.0202 37.8644 22.8702 39.175 23.0302 40.4755C23.4002 43.5503 25.6302 46.5242 28.7702 47.0081C29.2502 47.0787 29.7202 47.1089 30.2002 47.0888L30.2102 47.0989Z" fill="black"/>
<path d="M31.8502 47.8576C29.7502 47.8576 26.8302 47.5552 24.8402 46.0934C21.8602 43.9259 20.7002 40.2262 19.9602 36.8893L19.8502 36.4054C19.6602 35.5182 19.5002 34.631 19.3402 33.7438C19.1702 32.8163 19.0002 31.8789 18.8102 30.9514C18.7102 30.4776 18.5902 30.0037 18.4702 29.54C18.2202 28.5621 17.9702 27.5439 17.8802 26.4955C17.6102 23.3299 17.6602 20.9003 18.0402 18.6321C18.3902 16.5251 19.1502 13.9039 21.8402 12.2607C23.8902 11.0106 26.4002 10.2243 29.0802 9.97222C29.8602 9.90165 30.6602 9.86133 31.4602 9.86133C35.4402 9.86133 39.1702 10.7888 41.9602 12.4825C42.5802 12.8555 43.2702 13.3293 43.7502 13.9947C44.5402 15.0834 44.4802 16.8477 44.4402 18.2691C44.4302 18.6421 44.4202 18.995 44.4202 19.3075C44.4502 20.7088 44.3302 22.1101 44.2102 23.4711C44.1602 24.0356 44.1102 24.5901 44.0702 25.1446C43.9902 26.2737 43.6902 27.3826 43.3902 28.4714C43.2302 29.0561 43.0702 29.6306 42.9502 30.2154C42.1102 34.1975 41.4602 38.2402 41.0002 42.2323C40.6302 45.4684 38.7902 47.1419 35.0202 47.646C33.9802 47.7871 32.8702 47.8678 31.8402 47.8678L31.8502 47.8576Z" fill="#8DC63F"/>
<path d="M31.4502 10.3431C35.0002 10.3431 38.7302 11.0992 41.7002 12.9038C42.3202 13.2768 42.9302 13.7103 43.3502 14.2849C44.2302 15.5148 43.9002 17.894 43.9302 19.3155C43.9702 21.2511 43.7202 23.1867 43.5802 25.1122C43.4702 26.7756 42.8202 28.4491 42.4702 30.1024C41.6302 34.0946 40.9802 38.1171 40.5202 42.1597C40.1502 45.3857 38.2602 46.6963 34.9602 47.15C34.0302 47.2811 32.9502 47.3616 31.8402 47.3616C29.4302 47.3616 26.8402 46.9584 25.1102 45.6982C22.2302 43.6013 21.1302 39.9922 20.4202 36.7763C20.3802 36.615 20.3502 36.4537 20.3202 36.2924C19.9402 34.4777 19.6702 32.643 19.2802 30.8385C18.9602 29.3465 18.4802 27.9451 18.3602 26.4429C18.1402 23.852 18.0902 21.2712 18.5202 18.7005C18.9402 16.2104 19.8202 14.043 22.0902 12.6719C24.1902 11.3916 26.6402 10.6859 29.1202 10.454C29.8802 10.3834 30.6602 10.3431 31.4502 10.3431ZM31.4502 9.36523C30.6402 9.36523 29.8302 9.40556 29.0302 9.47613C26.2702 9.73824 23.7002 10.5548 21.5802 11.8352C18.6902 13.5893 17.9002 16.5028 17.5502 18.5392C17.1602 20.8478 17.1102 23.3177 17.3802 26.5236C17.4702 27.6225 17.7302 28.6507 17.9902 29.6488C18.1102 30.1125 18.2202 30.5763 18.3302 31.04C18.5302 31.9574 18.7002 32.905 18.8602 33.8124C19.0202 34.6894 19.1802 35.5968 19.3702 36.494C19.4002 36.6553 19.4402 36.8166 19.4802 36.988C20.2402 40.4156 21.4402 44.2163 24.5502 46.4845C26.6502 48.0169 29.6802 48.3395 31.8502 48.3395C32.9102 48.3395 34.0302 48.2589 35.1002 48.1177C37.6002 47.7749 40.9802 46.8071 41.4902 42.2706C41.9402 38.2885 42.6002 34.2559 43.4302 30.3041C43.5502 29.7395 43.7002 29.1851 43.8602 28.5903C44.1602 27.4914 44.4702 26.3421 44.5502 25.1727C44.5902 24.6182 44.6402 24.0638 44.6902 23.5093C44.8102 22.1382 44.9302 20.7168 44.9002 19.2852C44.9002 18.9828 44.9002 18.64 44.9202 18.2771C44.9702 16.7851 45.0302 14.9302 44.1402 13.7003C43.6102 12.9543 42.8602 12.4501 42.2002 12.0569C39.3302 10.323 35.5102 9.36523 31.4502 9.36523Z" fill="black"/>
<path d="M38.1303 33.5105C38.3603 33.4198 38.6003 33.319 38.8503 33.3492C39.2103 33.3795 39.5103 33.6718 39.6903 33.9944C40.1203 34.7505 40.0903 35.6982 39.8503 36.5349C39.6103 37.3717 39.1803 38.1378 38.8403 38.9443C38.4603 39.8517 38.2003 40.8094 38.0603 41.7873C37.8903 43.0172 37.8903 44.3782 37.1103 45.346C36.9503 45.5476 36.7603 45.719 36.5203 45.8097C36.1703 45.9408 35.7703 45.8601 35.4003 45.7996C33.2403 45.3964 31.0003 45.4266 28.8403 45.8803C28.3903 45.971 27.9403 46.092 27.4903 46.0315C26.6003 45.9206 25.9303 45.1746 25.4703 44.3983C24.7103 43.0978 24.3703 41.626 24.1103 40.1541C23.9503 39.2266 23.1103 36.797 23.6803 36.0107C24.3103 35.1235 26.8203 35.6881 27.7503 35.6578C29.4203 35.6074 31.0803 35.4159 32.7203 35.1034C34.5603 34.7404 36.3703 34.2162 38.1203 33.5206L38.1303 33.5105Z" fill="black"/>
<path d="M25.2403 35.8498C29.2057 35.8498 32.4203 32.609 32.4203 28.6114C32.4203 24.6138 29.2057 21.373 25.2403 21.373C21.2749 21.373 18.0603 24.6138 18.0603 28.6114C18.0603 32.609 21.2749 35.8498 25.2403 35.8498Z" fill="white" stroke="black" stroke-miterlimit="10"/>
<path d="M43.0616 29.1676C43.401 26.7024 42.1549 24.4911 40.2786 24.2287C38.4022 23.9662 36.6061 25.7518 36.2668 28.217C35.9275 30.6822 37.1735 32.8934 39.0498 33.1558C40.9262 33.4183 42.7223 31.6327 43.0616 29.1676Z" fill="white" stroke="black" stroke-miterlimit="10"/>
<path d="M43.3302 14.4274C42.9202 13.8124 42.3102 13.3689 41.6902 12.9757C38.0802 10.6772 33.3202 10.042 29.1102 10.4856C26.6202 10.7477 24.1602 11.5341 22.0502 12.895C21.0002 13.5806 20.2502 14.4375 19.7002 15.4154C22.2702 16.3126 25.8802 16.978 29.9102 17.1796C36.2302 17.5022 41.6402 16.5848 43.6302 15.0524C43.5502 14.8206 43.4502 14.5988 43.3302 14.4173V14.4274Z" fill="#AEE25A"/>
<path d="M25.1203 31.6654C26.004 31.6654 26.7203 30.9432 26.7203 30.0524C26.7203 29.1616 26.004 28.4395 25.1203 28.4395C24.2367 28.4395 23.5203 29.1616 23.5203 30.0524C23.5203 30.9432 24.2367 31.6654 25.1203 31.6654Z" fill="black"/>
<path d="M40.6203 27.724C40.9572 27.724 41.2303 27.4487 41.2303 27.1091C41.2303 26.7695 40.9572 26.4941 40.6203 26.4941C40.2834 26.4941 40.0103 26.7695 40.0103 27.1091C40.0103 27.4487 40.2834 27.724 40.6203 27.724Z" fill="black"/>
<path d="M33.1903 35.8889L33.7503 38.7822L36.8703 37.9959L36.4403 35.1328C36.4403 35.1328 34.1603 35.405 33.2003 35.8788L33.1903 35.8889Z" fill="white"/>
<path d="M27.4902 45.1646L27.1102 42.4124L29.1102 42.0898L29.6902 44.5497L27.4902 45.1646Z" fill="white"/>
<path d="M26.6803 29.4167C23.8403 29.4167 21.2103 29.074 19.0603 28.4187C18.2903 28.1868 17.5803 27.9146 16.9703 27.6122C16.6603 27.461 16.3603 27.2996 16.0903 27.1282C15.7803 26.9266 15.5403 26.7654 15.3203 26.5839L15.2303 26.5032C15.0103 26.3217 14.8302 26.1504 14.6602 25.969C14.6202 25.9186 14.5803 25.868 14.5403 25.8176L14.8403 25.3841L14.4603 25.7068C14.3503 25.5657 14.2403 25.4347 14.1503 25.2935C14.0903 25.2028 14.0503 25.102 14.0003 25.0112L13.9102 24.8298C13.8602 24.739 13.8103 24.6482 13.7803 24.5474C13.6803 24.2853 13.6203 24.0131 13.5803 23.7409L13.2402 22.1986L2.0202 22.8236L1.8802 22.7328C1.8802 22.7328 0.730211 21.9666 0.530211 20.6359C0.390211 19.6983 0.720207 18.7407 1.5102 17.7729L1.6602 17.5914L12.2003 17.4905L10.8103 11.1495C10.2503 6.61283 17.7603 2.10649 27.9003 0.836243C29.6103 0.624536 31.3203 0.513672 32.9703 0.513672C40.9003 0.513672 46.5303 2.94323 46.9703 6.5725L47.3603 19.5573C47.3903 19.769 47.3903 20.0511 47.3603 20.3233C47.3603 20.4141 47.3303 20.4947 47.3103 20.5855H46.8002L47.2702 20.7669C47.2502 20.8778 47.2202 20.9989 47.1902 21.1098C47.1502 21.2408 47.0903 21.3719 47.0303 21.5029L46.9603 21.6641C46.9303 21.7347 46.9003 21.8054 46.8603 21.876C46.7603 22.0574 46.6503 22.2388 46.5303 22.4202C46.4603 22.5211 46.4303 22.5715 46.4003 22.6118C46.2603 22.8033 46.0903 23.0051 45.9203 23.1966L45.4603 22.9547L45.8203 23.2973C45.6303 23.509 45.4103 23.7106 45.1803 23.9123C44.8803 24.1744 44.6203 24.3862 44.3403 24.5878C41.3403 26.8057 36.6202 28.4389 31.3802 29.1042C29.7902 29.3059 28.2103 29.4066 26.6703 29.4066L26.6803 29.4167Z" fill="#8DC63F"/>
<path d="M32.9703 1.02828C40.3803 1.02828 46.0603 3.23609 46.4803 6.64357L46.8703 19.5779C46.9003 19.8097 46.9003 20.0416 46.8703 20.2836C46.8603 20.3844 46.8303 20.4953 46.8103 20.5961C46.7803 20.7271 46.7703 20.8481 46.7203 20.9792C46.6803 21.1203 46.6103 21.2614 46.5503 21.3925C46.5103 21.4832 46.4803 21.5639 46.4303 21.6546C46.3403 21.8159 46.2303 21.9873 46.1203 22.1486C46.0803 22.2091 46.0503 22.2696 46.0003 22.32C45.8703 22.5014 45.7103 22.6829 45.5503 22.8644C45.5203 22.8946 45.4903 22.9349 45.4603 22.9652C45.2803 23.1668 45.0703 23.3583 44.8503 23.5499C44.8303 23.5701 44.8203 23.5801 44.8003 23.6003C44.5703 23.8019 44.3203 24.0036 44.0503 24.2052C44.0503 24.2052 44.0503 24.2052 44.0403 24.2153C41.2503 26.2718 36.6603 27.9554 31.3303 28.6208C29.7303 28.8224 28.1703 28.9131 26.6803 28.9131C23.8403 28.9131 21.2703 28.5603 19.2003 27.9353C18.4603 27.7135 17.7803 27.4514 17.1803 27.1489C16.8803 26.9977 16.6003 26.8465 16.3403 26.6852C16.3203 26.6751 16.3103 26.665 16.2903 26.6549C16.0503 26.5037 15.8203 26.3424 15.6103 26.1811C15.5703 26.1509 15.5503 26.1206 15.5103 26.0904C15.3303 25.9392 15.1603 25.7879 15.0103 25.6266C14.9603 25.5662 14.9203 25.5057 14.8603 25.4452C14.7503 25.304 14.6303 25.173 14.5403 25.0318C14.4703 24.931 14.4303 24.8101 14.3803 24.7092C14.3303 24.5983 14.2603 24.4975 14.2203 24.3866C14.1403 24.1649 14.0803 23.933 14.0503 23.691L13.6103 21.6849L2.13021 22.3301C2.13021 22.3301 -0.279786 20.7473 1.88021 18.1161L12.8003 18.0052L11.2803 11.0592C10.7703 6.91577 18.2303 2.57073 27.9403 1.35089C29.6703 1.13919 31.3503 1.02828 32.9503 1.02828M32.9703 0.0201525C31.3003 0.0201525 29.5703 0.131057 27.8403 0.342764C17.4203 1.65333 9.72022 6.40161 10.3103 11.1701V11.2507L10.3303 11.3011L11.5803 16.9971L1.89022 17.0878H1.43021L1.13021 17.4507C0.240214 18.5294 -0.129782 19.6283 0.0402175 20.707C0.270218 22.2292 1.47022 23.066 1.61022 23.1567L1.88021 23.3382L2.21021 23.318L12.8403 22.7232L13.0903 23.8523C13.1303 24.1447 13.2003 24.437 13.3103 24.7193C13.3503 24.8403 13.4103 24.9512 13.4703 25.0621L13.5103 25.1327L13.5503 25.2133C13.6003 25.3242 13.6603 25.4452 13.7303 25.5561C13.8403 25.7375 13.9703 25.8888 14.0903 26.0299L14.1303 26.0702C14.2003 26.171 14.2503 26.2315 14.3103 26.3021C14.5003 26.5138 14.7103 26.6953 14.9003 26.8566C14.9403 26.8969 14.9803 26.9271 15.0203 26.9675C15.2403 27.1388 15.4903 27.3203 15.7903 27.5118C15.7903 27.5118 15.8103 27.532 15.8403 27.5421C16.1103 27.7034 16.4003 27.8647 16.7103 28.026L16.7703 28.0562C16.7803 28.0562 16.7903 28.0663 16.8003 28.0764H16.8303V28.0865C17.4503 28.3889 18.1603 28.6611 18.9303 28.893C21.1303 29.5583 23.8103 29.9213 26.7003 29.9213C28.2603 29.9213 29.8603 29.8205 31.4703 29.6188C36.7903 28.9535 41.5903 27.28 44.6503 25.0218C44.9603 24.7899 45.2303 24.5681 45.4803 24.3564L45.5203 24.3161C45.7903 24.0741 46.0103 23.8624 46.2003 23.6507C46.2303 23.6205 46.2503 23.5902 46.2803 23.56C46.5203 23.2979 46.6803 23.0962 46.8203 22.9047C46.8603 22.8543 46.8903 22.8039 46.9303 22.7535L46.9603 22.7131C47.0903 22.5317 47.2103 22.3301 47.3303 22.1184C47.3703 22.0377 47.4103 21.947 47.4503 21.8663L47.4803 21.7957L47.5103 21.7252C47.5803 21.574 47.6403 21.4227 47.6903 21.2715C47.7303 21.1405 47.7603 20.9993 47.7903 20.8582L47.8103 20.7775L47.8303 20.707C47.8603 20.5961 47.8803 20.4852 47.8903 20.3743C47.9203 20.0718 47.9203 19.7795 47.8903 19.4972L47.5003 6.60323V6.55284V6.50244C47.0203 2.61106 41.1903 0 33.0003 0L32.9703 0.0201525Z" fill="black"/>
<path d="M17.0402 21.4832L2.15019 22.32C2.15019 22.32 -0.259814 20.7372 1.90019 18.106L16.6902 17.9648L17.0402 21.4933V21.4832Z" fill="#56341B"/>
<path d="M11.3002 11.0481L14.0702 23.6799C14.5502 27.5411 22.2702 29.749 31.3302 28.6199C40.3902 27.4807 47.3402 23.438 46.8702 19.5768L46.4802 6.64258L11.3102 11.0481H11.3002Z" fill="#808285"/>
<g opacity="0.28">
<path d="M17.0302 10.334L11.3002 11.0498L14.0702 23.6816C14.3002 25.5567 16.2402 27.0286 19.2102 27.9359L17.0402 10.334H17.0302Z" fill="#231F20"/>
<path d="M41.0001 7.33006L43.1601 24.8211C45.6601 23.2484 47.0901 21.3934 46.8701 19.5788L46.4801 6.64453L41.0001 7.33006Z" fill="#231F20"/>
</g>
<path d="M29.8272 16.3354C39.5388 15.1177 46.9972 10.7712 46.4859 6.6273C45.9747 2.48343 37.6874 0.111327 27.9757 1.32908C18.2641 2.54683 10.8057 6.89328 11.3169 11.0371C11.8282 15.1811 20.1155 17.5532 29.8272 16.3354Z" fill="#A7A9AC"/>
</svg>
