<svg width="61" height="54" viewBox="0 0 61 54" fill="none" xmlns="http://www.w3.org/2000/svg">
<path d="M23.7714 38.9199C23.7714 38.9199 23.7715 49.6814 25.0041 51.2188C26.2368 52.7562 37.7189 56.3877 41.9077 51.6425C41.9077 51.6425 42.524 44.6578 41.6566 40.1789C40.7891 35.6999 23.76 38.9199 23.76 38.9199H23.7714Z" fill="black"/>
<path d="M42.3158 17.5612C42.3158 17.5612 23.37 12.4657 20.52 45.6416C20.52 45.6416 28.9831 53.3644 47.52 47.4501C47.52 47.4501 43.1956 31.7602 46.1446 25.7727L42.3158 17.5612Z" fill="#754C29" stroke="black" stroke-miterlimit="10"/>
<path d="M47.164 25.8759C48.212 25.9121 49.4166 27.0805 50.1032 27.6708C51.3198 28.7308 52.4642 29.8631 53.5122 31.0918C55.8129 33.7901 57.8125 37.1388 57.7764 40.7887C57.7764 41.4031 57.7041 42.0054 57.5836 42.5956C57.5836 42.6318 57.5716 42.6679 57.5596 42.704C57.138 44.3061 55.8972 46.3058 53.9338 45.8721C52.693 45.6071 51.5848 44.8 50.9343 43.7038C49.9225 41.9933 50.1152 39.8733 50.0791 37.8857C50.0309 35.0308 49.1395 32.8023 47.441 30.5377C46.8387 29.7427 45.5739 28.8633 45.4775 27.8033C45.4534 27.5142 45.5257 27.2251 45.6462 26.9601C45.863 26.5144 46.3448 25.9723 46.8628 25.8759C46.9471 25.8639 47.0435 25.8518 47.1399 25.8639L47.164 25.8759Z" fill="#1C75BC" stroke="black" stroke-miterlimit="10"/>
<path d="M53.9458 45.6918C55.7288 45.6918 57.1741 43.7448 57.1741 41.3432C57.1741 38.9415 55.7288 36.9946 53.9458 36.9946C52.1629 36.9946 50.7175 38.9415 50.7175 41.3432C50.7175 43.7448 52.1629 45.6918 53.9458 45.6918Z" fill="black"/>
<path d="M50.4045 40.7137C50.3202 40.7017 50.2479 40.6897 50.1636 40.6776C49.7179 40.5933 49.2722 40.4849 48.8987 40.8222C48.6699 41.039 48.5735 41.3642 48.5735 41.6895C48.5735 42.6893 49.4047 43.6288 50.4045 43.7252C51.2718 43.8095 51.8861 43.4 52.6812 43.8818C54.994 45.2791 57.9934 43.5445 59.3546 41.581C60.1014 40.509 60.3785 39.1959 60.4748 37.907C60.5832 36.4374 58.9691 35.1485 57.8007 34.5824C56.7768 34.0885 55.5481 33.7874 54.4037 33.944C53.2594 34.0885 52.7173 34.7028 52.1752 35.6424C52.0186 35.9195 51.838 36.1965 51.7657 36.4977C51.4525 37.7866 53.0787 37.4975 53.5003 38.3166C53.8014 38.9068 53.1871 39.7139 52.8859 40.1957C52.6209 40.6173 52.3679 40.7739 51.874 40.798C51.3802 40.8101 50.8863 40.7981 50.3924 40.7137H50.4045Z" fill="#8DC63F" stroke="black" stroke-width="0.93" stroke-miterlimit="10"/>
<path opacity="0.51" d="M50.3081 40.8596C50.6936 40.8957 51.0791 40.9199 51.4766 40.9078C52.0307 40.8837 52.3198 40.703 52.6089 40.2332C52.9462 39.6912 53.6448 38.7877 53.2955 38.1132C52.9702 37.4747 52.0186 37.4145 51.5609 36.9808L51.7536 36.6797C51.7536 36.6797 54.6808 38.5588 57.3911 39.1491C57.3911 39.1491 55.7528 42.1124 54.1507 41.9317C53.0907 41.8112 51.3681 41.233 50.3081 40.8476V40.8596Z" fill="black"/>
<path d="M33.6968 45.0889C35.0098 45.0528 36.3228 44.7757 37.5997 44.4866C38.2622 44.3421 40.057 44.0891 40.3943 43.4627C41.0207 42.3063 40.3943 40.8608 40.0811 39.7164C39.7318 38.4396 39.6113 37.1145 39.6475 35.7895C39.7198 33.0792 40.4304 30.417 41.3218 27.8633C41.3941 27.6585 41.4664 27.4537 41.4784 27.2369C41.5025 26.6105 40.9966 26.1046 40.4907 25.7191C37.0576 23.1292 32.0104 22.8883 28.3484 25.153C27.9389 25.4059 27.5534 25.683 27.2402 26.0564C26.7945 26.5864 26.5536 27.2489 26.3488 27.8994C25.879 29.4051 25.5417 30.9591 25.2887 32.513C25.0358 34.0549 24.8551 35.6208 25.0479 37.1748C25.4936 40.8488 28.1798 44.4023 31.9622 44.9805C32.5404 45.0648 33.1065 45.101 33.6847 45.0769L33.6968 45.0889Z" fill="black"/>
<path d="M35.6605 45.9923C33.1309 45.9923 29.6134 45.6309 27.2163 43.8842C23.6266 41.2944 22.2293 36.8735 21.3379 32.8863L21.2054 32.3081C20.9766 31.2481 20.7838 30.188 20.5911 29.116C20.3863 28.0077 20.1815 26.8995 19.9526 25.7913C19.8321 25.2251 19.6876 24.659 19.5431 24.1049C19.2419 22.9364 18.9408 21.7198 18.8323 20.467C18.5071 16.6846 18.5674 13.7815 19.0251 11.0712C19.4467 8.55362 20.3622 5.42168 23.6025 3.4582C26.0719 1.96451 29.0834 1.02494 32.3238 0.723796C33.2633 0.639474 34.227 0.591309 35.1907 0.591309C39.9849 0.591309 44.4781 1.6995 47.8389 3.72321C48.5857 4.16891 49.4168 4.73506 49.995 5.53009C50.9467 6.83105 50.8744 8.93909 50.8262 10.6255C50.8142 11.0712 50.8022 11.4928 50.8022 11.8662C50.8383 13.5406 50.6937 15.2271 50.5492 16.8533C50.489 17.5158 50.4287 18.1904 50.3805 18.8529C50.2842 20.19 49.9228 21.527 49.5614 22.8159C49.3687 23.5146 49.1759 24.2133 49.0314 24.8999C48.0195 29.658 47.2365 34.4884 46.6824 39.2586C46.2367 43.1253 44.0203 45.125 39.4911 45.7273C38.2263 45.8959 36.9012 45.9923 35.6605 45.9923Z" fill="#8DC63F"/>
<path d="M35.1907 1.16845C39.467 1.16845 43.9601 2.0719 47.5377 4.22812C48.2846 4.67382 49.0194 5.19178 49.5253 5.8784C50.5854 7.348 50.1878 10.1908 50.224 11.8893C50.2721 14.2021 49.971 16.5149 49.8024 18.8157C49.6699 20.8032 48.8869 22.8029 48.4653 24.7784C47.4534 29.5486 46.6704 34.3549 46.1163 39.1853C45.6706 43.04 43.394 44.6059 39.4188 45.148C38.2865 45.3046 36.9976 45.401 35.6605 45.401C32.7575 45.401 29.6375 44.9191 27.5536 43.4134C24.0844 40.9078 22.7593 36.5954 21.9041 32.7528C21.8559 32.56 21.8198 32.3673 21.7836 32.1746C21.3259 30.0063 21.0007 27.814 20.5309 25.6578C20.1454 23.875 19.5672 22.2006 19.4226 20.4057C19.1576 17.3099 19.0974 14.2262 19.6154 11.1545C20.1213 8.17917 21.1814 5.58929 23.9158 3.95105C26.4454 2.42122 29.3966 1.57803 32.384 1.30098C33.2995 1.21666 34.2391 1.16845 35.1907 1.16845ZM35.1907 0C34.215 0 33.2393 0.0482027 32.2756 0.132524C28.951 0.445717 25.8552 1.42143 23.3014 2.95126C19.8202 5.04724 18.8685 8.5285 18.4469 10.9618C17.9771 13.7323 17.9169 16.6715 18.2421 20.5021C18.3505 21.8151 18.6637 23.0438 18.9769 24.2363C19.1215 24.7904 19.254 25.3445 19.3865 25.8987C19.6274 26.9948 19.8322 28.1271 20.0249 29.2113C20.2176 30.2593 20.4104 31.3434 20.6393 32.4155C20.6754 32.6082 20.7236 32.801 20.7717 33.0058C21.6872 37.1014 23.1327 41.6426 26.879 44.353C29.4087 46.1839 33.0586 46.5694 35.6726 46.5694C36.9494 46.5694 38.2986 46.473 39.5875 46.3044C42.599 45.8948 46.6704 44.7384 47.2848 39.3178C47.8268 34.5597 48.6218 29.7413 49.6217 25.0193C49.7662 24.3448 49.9469 23.6822 50.1396 22.9715C50.501 21.6585 50.8744 20.2853 50.9708 18.888C51.019 18.2255 51.0792 17.5629 51.1395 16.9004C51.284 15.2621 51.4286 13.5637 51.3924 11.8531C51.3924 11.4918 51.3924 11.0822 51.4165 10.6486C51.4767 8.86577 51.549 6.64935 50.4769 5.17975C49.8385 4.28836 48.9351 3.68606 48.14 3.21627C44.6829 1.14438 40.0813 0 35.1907 0Z" fill="black"/>
<path d="M43.2371 28.8624C43.5142 28.754 43.8033 28.6335 44.1045 28.6696C44.5381 28.7058 44.8995 29.0551 45.1163 29.4405C45.6343 30.344 45.5982 31.4763 45.3091 32.4761C45.02 33.4759 44.502 34.3914 44.0924 35.3551C43.6347 36.4392 43.3215 37.5836 43.1528 38.752C42.948 40.2216 42.948 41.8478 42.0084 43.0042C41.8157 43.2451 41.5869 43.4499 41.2978 43.5583C40.8762 43.7149 40.3943 43.6186 39.9486 43.5463C37.3467 43.0645 34.6485 43.1006 32.0465 43.6427C31.5045 43.7511 30.9624 43.8956 30.4203 43.8233C29.3482 43.6908 28.5412 42.7994 27.9871 41.8719C27.0716 40.318 26.662 38.5593 26.3488 36.8006C26.1561 35.6924 25.1442 32.7893 25.8308 31.8497C26.5897 30.7897 29.6132 31.4642 30.7335 31.4281C32.7452 31.3679 34.7448 31.139 36.7204 30.7656C38.9368 30.3319 41.1171 29.7056 43.2251 28.8744L43.2371 28.8624Z" fill="black"/>
<path d="M49.5011 6.05871C49.0072 5.32391 48.2724 4.79389 47.5255 4.3241C43.177 1.57764 37.4431 0.818747 32.3718 1.34877C29.3723 1.66196 26.4091 2.60156 23.8674 4.22775C22.6026 5.04687 21.6991 6.07077 21.0366 7.23922C24.1324 8.31131 28.481 9.10634 33.3355 9.34725C40.9485 9.73272 47.4653 8.63656 49.8624 6.80559C49.7661 6.52853 49.6456 6.26352 49.5011 6.04669V6.05871Z" fill="#AEE25A"/>
<path d="M37.2742 31.694L37.9487 35.1512L41.707 34.2116L41.1891 30.7905C41.1891 30.7905 38.4426 31.1158 37.2862 31.6819L37.2742 31.694Z" fill="white"/>
<path d="M30.4204 42.7878L29.9626 39.4992L32.3718 39.1138L33.0705 42.0409L30.4204 42.7878Z" fill="white"/>
<path d="M28.7339 33.1958C33.5106 33.1958 37.3828 29.3236 37.3828 24.5469C37.3828 19.7702 33.5106 15.8979 28.7339 15.8979C23.9572 15.8979 20.085 19.7702 20.085 24.5469C20.085 29.3236 23.9572 33.1958 28.7339 33.1958Z" fill="white" stroke="black" stroke-miterlimit="10"/>
<path d="M48.5161 23.0289C49.3133 20.1639 48.1774 17.3455 45.979 16.7338C43.7806 16.122 41.3522 17.9487 40.555 20.8136C39.7578 23.6785 40.8937 26.4969 43.0921 27.1086C45.2904 27.7203 47.7189 25.8938 48.5161 23.0289Z" fill="white" stroke="black" stroke-miterlimit="10"/>
<path d="M28.3605 28.1613C29.4249 28.1613 30.2878 27.2984 30.2878 26.234C30.2878 25.1695 29.4249 24.3066 28.3605 24.3066C27.2961 24.3066 26.4331 25.1695 26.4331 26.234C26.4331 27.2984 27.2961 28.1613 28.3605 28.1613Z" fill="black"/>
<path d="M45.9474 20.9579C46.3532 20.9579 46.6822 20.6289 46.6822 20.2231C46.6822 19.8172 46.3532 19.4883 45.9474 19.4883C45.5416 19.4883 45.2126 19.8172 45.2126 20.2231C45.2126 20.6289 45.5416 20.9579 45.9474 20.9579Z" fill="black"/>
<path d="M18.9285 24.7649C22.1327 25.5961 30.5407 27.1741 37.5032 23.2592C38.0573 22.946 38.3585 22.3076 38.2621 21.6812C38.0332 20.0911 37.2382 17.0435 34.4315 14.9475C30.6371 12.1047 19.4706 11.7072 17.748 22.9822C17.6275 23.7892 18.1214 24.5722 18.9164 24.777L18.9285 24.7649Z" fill="#006838" stroke="black" stroke-miterlimit="10"/>
<path d="M40.2259 22.9222C41.9243 23.5486 45.5501 24.7171 47.8148 24.3557C48.3086 24.2714 48.6942 24.7412 48.5376 25.211C48.128 26.4397 47.2968 28.2224 45.8633 28.7163C43.7312 29.4632 39.7922 29.6198 39.3345 23.6089C39.2983 23.127 39.7681 22.7536 40.2259 22.9102V22.9222Z" fill="#006838" stroke="black" stroke-miterlimit="10"/>
<path d="M15.4656 50.9116C15.2604 50.9116 15.0552 50.9008 14.85 50.8792H14.6232C10.2384 50.62 6.19921 48.46 3.55321 44.9392C1.58761 42.3256 0.550781 39.2261 0.550781 35.9753C0.550781 35.6081 0.572368 35.2517 0.604768 34.8953C0.583168 34.5389 0.550781 34.1825 0.550781 33.8153C0.550781 25.5857 7.24679 18.8896 15.4764 18.8896C23.706 18.8896 30.402 25.5857 30.402 33.8153C30.402 34.1069 30.3804 34.3985 30.3588 34.6901V34.852C30.3804 35.176 30.402 35.5756 30.402 35.986C30.402 36.4828 30.3804 36.9796 30.3264 37.4872C30.3048 37.66 30.2832 37.8328 30.2508 37.9948L30.186 38.416C30.1644 38.5888 30.1428 38.7616 30.0996 38.9344C30.0456 39.226 29.97 39.5069 29.8836 39.7877L29.808 40.0577C29.7864 40.1441 29.7648 40.2304 29.7432 40.3168C29.6244 40.6948 29.4948 41.062 29.3544 41.4184L29.268 41.6453C29.106 42.0449 28.9224 42.4337 28.7172 42.8225C26.0928 47.8445 21.0168 50.9116 15.4548 50.9116H15.4656Z" fill="#1C75BC"/>
<path d="M15.4656 19.4399C23.4144 19.4399 29.8512 25.8766 29.8512 33.8254C29.8512 34.1602 29.8188 34.4843 29.7972 34.8191C29.8296 35.2079 29.8512 35.5966 29.8512 35.9854C29.8512 36.4714 29.8296 36.9575 29.7756 37.4219C29.754 37.6595 29.7108 37.8862 29.6784 38.113C29.646 38.3506 29.6136 38.5883 29.5704 38.8151C29.5056 39.1283 29.4192 39.4415 29.3328 39.7439C29.3004 39.8735 29.268 40.0139 29.2248 40.1543C29.1168 40.5107 28.9872 40.8671 28.8468 41.2127C28.8144 41.2883 28.7928 41.353 28.7712 41.4286C28.6092 41.8174 28.4364 42.1955 28.242 42.5627C28.2312 42.5843 28.2205 42.6166 28.2097 42.6382C25.8013 47.2282 21.006 50.3603 15.4656 50.3603C15.1956 50.3603 14.9256 50.3387 14.6556 50.3171C10.2924 50.0687 6.4584 47.8871 3.9852 44.6039C2.1708 42.1955 1.09081 39.2147 1.09081 35.9747C1.09081 35.6075 1.1232 35.2511 1.1448 34.8947C1.1232 34.5383 1.09081 34.1819 1.09081 33.8147C1.09081 25.8659 7.52762 19.4291 15.4764 19.4291M15.4656 18.3599C6.93361 18.3599 0 25.2934 0 33.8254C0 34.2034 0.0216527 34.5598 0.0540527 34.9054C0.0216527 35.2726 0 35.6182 0 35.9854C0 39.355 1.08001 42.5626 3.11041 45.2734C5.8536 48.9238 10.0332 51.1594 14.5908 51.4186H14.8176C15.0336 51.451 15.2496 51.4619 15.4656 51.4619C21.2328 51.4619 26.4816 48.2867 29.1708 43.1567V43.1351L29.2141 43.0703C29.4409 42.6383 29.6244 42.2387 29.7756 41.8499C29.7972 41.7959 29.8188 41.7419 29.8404 41.6771L29.862 41.623C29.9916 41.2882 30.1428 40.8994 30.2724 40.4782C30.3048 40.381 30.3264 40.2839 30.348 40.1867L30.3804 40.0462L30.402 39.9491C30.4884 39.6467 30.564 39.3551 30.6288 39.0419C30.6612 38.8583 30.6936 38.6746 30.7152 38.491L30.7476 38.2858L30.78 38.0806C30.8124 37.9078 30.834 37.7243 30.8556 37.5515C30.9096 37.0547 30.9312 36.5471 30.9312 36.0503V36.0071C30.9312 35.6291 30.9204 35.2511 30.888 34.8299V34.7543C30.9096 34.4519 30.9312 34.1494 30.9312 33.8362C30.9312 25.3042 23.9976 18.3706 15.4656 18.3706V18.3599Z" fill="black"/>
<path d="M15.4657 48.2111C23.4106 48.2111 29.8513 41.7705 29.8513 33.8255C29.8513 25.8806 23.4106 19.4399 15.4657 19.4399C7.52074 19.4399 1.08008 25.8806 1.08008 33.8255C1.08008 41.7705 7.52074 48.2111 15.4657 48.2111Z" fill="#BCBEC0"/>
<path d="M15.4657 50.3713C23.4106 50.3713 29.8513 43.9306 29.8513 35.9857C29.8513 28.0407 23.4106 21.6001 15.4657 21.6001C7.52074 21.6001 1.08008 28.0407 1.08008 35.9857C1.08008 43.9306 7.52074 50.3713 15.4657 50.3713Z" fill="#939598"/>
<path opacity="0.08" d="M14.7098 29.8615L3.97461 44.6144C6.44781 47.8976 10.2817 50.0791 14.6449 50.3275L20.747 44.0096L25.8662 45.8887C28.3286 43.3075 29.8406 39.8192 29.8406 35.9744C29.8406 33.0584 28.9658 30.3475 27.4754 28.0903L20.207 33.7603L14.699 29.8615H14.7098Z" fill="black"/>
<path opacity="0.18" d="M8.25146 30.5427C8.25146 30.5427 5.5947 38.2647 7.2039 41.0619C11.3835 48.3087 16.8159 47.747 18.4899 46.0082C20.1639 44.2694 20.9955 40.7811 20.9955 40.7811L11.6535 30.3267L8.24065 30.5319L8.25146 30.5427Z" fill="black"/>
<path d="M10.4437 33.2424C10.4437 33.2424 9.5797 39.5172 16.7185 40.77L19.4185 38.7396C19.4185 38.7396 12.9061 36.9792 12.9061 31.1904L10.4437 33.2424Z" fill="#414042"/>
<path d="M10.0006 33.6418C10.0006 33.6418 9.13659 39.9166 16.2754 41.1694L18.9754 39.139C18.9754 39.139 12.463 37.3786 12.463 31.5898L10.0006 33.6418Z" fill="#BCBEC0"/>
<path d="M16.7075 40.7593C16.7075 40.7593 18.6623 42.9949 19.7531 42.5845C20.4767 42.3145 21.0491 41.7854 21.2975 41.2454C21.4811 40.8458 21.3191 40.3814 20.9951 40.1006L19.4183 38.7397L16.7183 40.7702L16.7075 40.7593Z" fill="#414042"/>
<path d="M16.1675 41.1158C16.1675 41.1158 18.1223 43.3514 19.2131 42.941C19.9367 42.671 20.5091 42.1418 20.7575 41.6018C20.9411 41.2022 20.779 40.7378 20.455 40.457L18.8783 39.0962L16.1783 41.1266L16.1675 41.1158Z" fill="#AEAEAF"/>
<path d="M19.4917 41.5609C19.6212 41.2018 19.3986 40.7927 18.9946 40.647C18.5906 40.5013 18.1582 40.6743 18.0287 41.0334C17.8992 41.3925 18.1217 41.8017 18.5257 41.9474C18.9297 42.0931 19.3622 41.92 19.4917 41.5609Z" fill="#414042"/>
<path d="M10.4438 33.2425C10.4438 33.2425 7.06342 31.1473 9.30982 29.6461C11.297 28.3285 12.9062 31.1905 12.9062 31.1905L10.4438 33.2425Z" fill="#414042"/>
<path d="M10.0007 33.6419C10.0007 33.6419 6.62031 31.5467 8.86671 30.0455C10.8539 28.7279 12.4631 31.5899 12.4631 31.5899L10.0007 33.6419Z" fill="#AEAEAF"/>
<path d="M10.8212 31.8056C10.9507 31.4465 10.7282 31.0372 10.3242 30.8916C9.92024 30.7459 9.48776 30.9189 9.35826 31.278C9.22876 31.6371 9.45128 32.0463 9.85527 32.192C10.2593 32.3377 10.6917 32.1647 10.8212 31.8056Z" fill="#414042"/>
</svg>
