<svg width="46" height="55" viewBox="0 0 46 55" fill="none" xmlns="http://www.w3.org/2000/svg">
<path d="M14.7142 42.4225C14.7142 42.4225 14.7142 51.3979 15.7942 52.6801C16.8742 53.9623 26.9342 56.9913 30.6042 53.0336C30.6042 53.0336 31.1442 47.208 30.3842 43.4725C29.6242 39.7369 14.7042 42.4225 14.7042 42.4225H14.7142Z" fill="black"/>
<path d="M29.4543 23.8067C29.4543 23.8067 14.1643 19.5966 11.8643 47.0075C11.8643 47.0075 18.6943 53.3883 33.6543 48.5018C33.6543 48.5018 30.1643 35.5384 32.5443 30.5913L29.4543 23.8067Z" fill="#2B3990" stroke="black" stroke-miterlimit="10"/>
<path d="M12.0543 28.7447C11.1843 28.775 10.1843 29.7544 9.6143 30.2491C8.6043 31.1375 7.6543 32.0866 6.7843 33.1164C4.8743 35.3779 3.2143 38.1846 3.2443 41.2437C3.2443 41.7586 3.30429 42.2634 3.40429 42.7581C3.40429 42.7884 3.4143 42.8187 3.4243 42.849C3.7743 44.1918 4.80429 45.8677 6.43429 45.5043C7.46429 45.2822 8.3843 44.6057 8.9243 43.687C9.76428 42.2533 9.6043 40.4764 9.6343 38.8106C9.6743 36.4178 10.4143 34.55 11.8243 32.6519C12.3243 31.9856 13.3743 31.2486 13.4543 30.3601C13.4743 30.1178 13.4143 29.8755 13.3143 29.6534C13.1343 29.2798 12.7343 28.8255 12.3043 28.7447C12.2343 28.7347 12.1543 28.7246 12.0743 28.7347L12.0543 28.7447Z" fill="#1C75BC" stroke="black" stroke-miterlimit="10"/>
<path d="M6.42425 45.3519C7.90438 45.3519 9.10426 43.7201 9.10426 41.7072C9.10426 39.6942 7.90438 38.0625 6.42425 38.0625C4.94413 38.0625 3.74426 39.6942 3.74426 41.7072C3.74426 43.7201 4.94413 45.3519 6.42425 45.3519Z" fill="black"/>
<path d="M9.36431 41.1933C9.43431 41.1832 9.49431 41.1731 9.56431 41.163C9.93428 41.0923 10.3043 41.0014 10.6143 41.2841C10.8043 41.4659 10.8843 41.7384 10.8843 42.0109C10.8843 42.8489 10.1943 43.6365 9.36431 43.7173C8.64431 43.788 8.13431 43.4447 7.47431 43.8485C5.55431 45.0197 3.06431 43.5658 1.93431 41.9202C1.31431 41.0216 1.08431 39.9212 1.00431 38.8409C0.914306 37.6091 2.25431 36.5289 3.22431 36.0543C4.07431 35.6404 5.09431 35.388 6.04431 35.5193C6.99431 35.6404 7.44431 36.1553 7.89431 36.9428C8.02431 37.175 8.17431 37.4072 8.23431 37.6596C8.49431 38.7399 7.14431 38.4976 6.79431 39.1841C6.54431 39.6788 7.05432 40.3553 7.30432 40.7591C7.52432 41.1125 7.73431 41.2437 8.14431 41.2639C8.55431 41.274 8.96431 41.2639 9.37431 41.1933H9.36431Z" fill="#8DC63F" stroke="black" stroke-width="0.93" stroke-miterlimit="10"/>
<path opacity="0.51" d="M9.44433 41.3139C9.12433 41.3442 8.80433 41.3644 8.47433 41.3543C8.01433 41.3341 7.77433 41.1826 7.53433 40.7889C7.25433 40.3346 6.67434 39.5774 6.96434 39.012C7.23434 38.4769 8.02432 38.4264 8.40432 38.0629L8.24434 37.8105C8.24434 37.8105 5.81433 39.3855 3.56433 39.8802C3.56433 39.8802 4.92433 42.3639 6.25433 42.2124C7.13433 42.1115 8.56433 41.6269 9.44433 41.3038V41.3139Z" fill="black"/>
<path d="M34.2143 30.9751C35.0843 31.0054 36.0843 31.9848 36.6543 32.4796C37.6643 33.368 38.6143 34.317 39.4843 35.3468C41.3943 37.6084 43.0543 40.415 43.0243 43.4741C43.0243 43.989 42.9643 44.4938 42.8643 44.9885C42.8643 45.0188 42.8543 45.0491 42.8443 45.0794C42.4943 46.4222 41.4643 48.0981 39.8343 47.7347C38.8043 47.5125 37.8843 46.8362 37.3443 45.9175C36.5043 44.4838 36.6643 42.7068 36.6343 41.0409C36.5943 38.6482 35.8543 36.7804 34.4443 34.8823C33.9443 34.216 32.8943 33.479 32.8143 32.5905C32.7943 32.3482 32.8543 32.1059 32.9543 31.8838C33.1343 31.5102 33.5343 31.0559 33.9643 30.9751C34.0343 30.965 34.1143 30.955 34.1943 30.9651L34.2143 30.9751Z" fill="#1C75BC" stroke="black" stroke-miterlimit="10"/>
<path d="M39.8443 47.5824C41.3244 47.5824 42.5243 45.9505 42.5243 43.9376C42.5243 41.9247 41.3244 40.293 39.8443 40.293C38.3641 40.293 37.1643 41.9247 37.1643 43.9376C37.1643 45.9505 38.3641 47.5824 39.8443 47.5824Z" fill="black"/>
<path d="M36.9043 43.4237C36.8343 43.4136 36.7743 43.4035 36.7043 43.3934C36.3343 43.3228 35.9643 43.2319 35.6543 43.5146C35.4643 43.6963 35.3843 43.9689 35.3843 44.2415C35.3843 45.0795 36.0743 45.867 36.9043 45.9478C37.6243 46.0184 38.1343 45.6752 38.7943 46.079C40.7143 47.2502 43.2043 45.7963 44.3343 44.1506C44.9543 43.2521 45.1843 42.1516 45.2643 41.0713C45.3543 39.8396 44.0143 38.7593 43.0443 38.2848C42.1943 37.8709 41.1743 37.6185 40.2243 37.7497C39.2743 37.8709 38.8243 38.3858 38.3743 39.1733C38.2443 39.4055 38.0943 39.6377 38.0343 39.8901C37.7743 40.9704 39.1243 40.7281 39.4743 41.4146C39.7243 41.9093 39.2143 42.5858 38.9643 42.9896C38.7443 43.343 38.5343 43.4742 38.1243 43.4944C37.7143 43.5045 37.3043 43.4944 36.8943 43.4237H36.9043Z" fill="#8DC63F" stroke="black" stroke-width="0.93" stroke-miterlimit="10"/>
<path opacity="0.51" d="M36.8342 43.5444C37.1542 43.5747 37.4742 43.5948 37.8042 43.5847C38.2642 43.5646 38.5042 43.413 38.7442 43.0193C39.0242 42.5649 39.6042 41.8078 39.3142 41.2425C39.0442 40.7074 38.2541 40.6569 37.8741 40.2934L38.0342 40.041C38.0342 40.041 40.4642 41.6159 42.7142 42.1106C42.7142 42.1106 41.3542 44.5943 40.0242 44.4428C39.1442 44.3419 37.7142 43.8572 36.8342 43.5342V43.5444Z" fill="black"/>
<path d="M23.0343 47.0882C24.1243 47.0579 25.2143 46.8257 26.2743 46.5834C26.8243 46.4622 28.3143 46.2502 28.5943 45.7252C29.1143 44.756 28.5943 43.5444 28.3343 42.5853C28.0443 41.5151 27.9443 40.4045 27.9743 39.294C28.0343 37.0224 28.6243 34.7911 29.3643 32.6507C29.4243 32.4791 29.4843 32.3075 29.4943 32.1258C29.5143 31.6008 29.0943 31.1767 28.6743 30.8536C25.8243 28.683 21.6343 28.4811 18.5943 30.3791C18.2543 30.5911 17.9343 30.8234 17.6743 31.1363C17.3043 31.5806 17.1043 32.1358 16.9343 32.681C16.5443 33.943 16.2643 35.2454 16.0543 36.5478C15.8443 37.8401 15.6943 39.1526 15.8543 40.455C16.2243 43.5343 18.4543 46.5127 21.5943 46.9973C22.0743 47.068 22.5443 47.0983 23.0243 47.0781L23.0343 47.0882Z" fill="black"/>
<path d="M24.6743 47.8471C22.5743 47.8471 19.6543 47.5442 17.6643 46.0803C14.6843 43.9096 13.5243 40.2044 12.7843 36.8626L12.6743 36.3779C12.4843 35.4895 12.3243 34.601 12.1643 33.7126C11.9943 32.7736 11.8243 31.8448 11.6243 30.916C11.5243 30.4414 11.4043 29.9669 11.2843 29.5025C11.0343 28.5232 10.7843 27.5035 10.6943 26.4535C10.4243 23.2833 10.4743 20.8501 10.8543 18.5785C11.2043 16.4684 11.9643 13.8435 14.6543 12.1978C16.7043 10.9459 19.2143 10.1584 21.8943 9.90598C22.6743 9.83531 23.4743 9.79492 24.2743 9.79492C28.2543 9.79492 31.9843 10.7238 34.7743 12.4199C35.3943 12.7935 36.0843 13.268 36.5643 13.9343C37.3543 15.0247 37.2943 16.7915 37.2543 18.2151C37.2443 18.5886 37.2343 18.942 37.2343 19.255C37.2643 20.6583 37.1443 22.0617 37.0243 23.4247C36.9743 23.99 36.9243 24.5453 36.8843 25.1006C36.8043 26.2314 36.5043 27.3419 36.2043 28.4222C36.0443 29.0078 35.8843 29.5833 35.7643 30.1688C34.9243 34.1568 34.2743 38.2053 33.8143 42.2034C33.4443 45.4442 31.6043 47.1202 27.8343 47.625C26.7943 47.7663 25.6843 47.8471 24.6543 47.8471H24.6743Z" fill="#8DC63F"/>
<path d="M24.2743 10.2762C27.8243 10.2762 31.5543 11.0334 34.5243 12.8406C35.1443 13.2142 35.7543 13.6483 36.1743 14.2238C37.0543 15.4555 36.7243 17.8382 36.7543 19.2618C36.7943 21.2002 36.5443 23.1387 36.4043 25.067C36.2943 26.7329 35.6443 28.4088 35.2943 30.0646C34.4543 34.0626 33.8043 38.091 33.3443 42.1395C32.9743 45.3703 31.0843 46.6828 27.7843 47.1371C26.8443 47.2683 25.7743 47.3491 24.6643 47.3491C22.2543 47.3491 19.6643 46.9453 17.9343 45.6832C15.0543 43.5833 13.9543 39.9689 13.2443 36.7482C13.2043 36.5867 13.1743 36.4251 13.1443 36.2636C12.7643 34.4463 12.4943 32.6088 12.1043 30.8016C11.7843 29.3074 11.3043 27.904 11.1843 26.3997C10.9643 23.805 10.9143 21.2204 11.3443 18.6459C11.7643 16.1522 12.6443 13.9815 14.9143 12.6084C17.0143 11.3262 19.4643 10.6195 21.9443 10.3873C22.7043 10.3166 23.4843 10.2762 24.2743 10.2762ZM24.2743 9.29688C23.4643 9.29688 22.6543 9.33728 21.8543 9.40795C19.0943 9.67047 16.5243 10.4883 14.4043 11.7705C11.5143 13.5272 10.7243 16.445 10.3743 18.4844C9.9843 20.7964 9.9343 23.2699 10.2043 26.4805C10.2943 27.5809 10.5543 28.6108 10.8143 29.6103C10.9343 30.0747 11.0443 30.5391 11.1543 31.0035C11.3543 31.9223 11.5243 32.8713 11.6843 33.7799C11.8443 34.6583 12.0043 35.567 12.1943 36.4655C12.2243 36.627 12.2643 36.7886 12.3043 36.9602C13.0643 40.3929 14.2643 44.1991 17.3743 46.4707C19.4743 48.0053 22.5043 48.3284 24.6743 48.3284C25.7343 48.3284 26.8543 48.2477 27.9243 48.1063C30.4243 47.763 33.8043 46.7938 34.3143 42.2506C34.7643 38.2626 35.4243 34.2242 36.2543 30.2665C36.3743 29.7011 36.5243 29.1458 36.6843 28.5502C36.9843 27.4497 37.2943 26.2987 37.3743 25.1276C37.4143 24.5723 37.4643 24.017 37.5143 23.4617C37.6343 22.0887 37.7543 20.6651 37.7243 19.2315C37.7243 18.9286 37.7243 18.5853 37.7443 18.2219C37.7943 16.7276 37.8543 14.87 36.9643 13.6382C36.4343 12.8911 35.6843 12.3863 35.0243 11.9926C32.1543 10.256 28.3343 9.29688 24.2743 9.29688Z" fill="black"/>
<path d="M30.9543 33.4776C31.1843 33.3867 31.4243 33.2857 31.6743 33.316C32.0343 33.3463 32.3343 33.6391 32.5143 33.9622C32.9443 34.7194 32.9143 35.6684 32.6743 36.5064C32.4343 37.3444 32.0043 38.1116 31.6643 38.9193C31.2843 39.8279 31.0243 40.7871 30.8843 41.7665C30.7143 42.9982 30.7143 44.3612 29.9343 45.3304C29.7743 45.5323 29.5843 45.7038 29.3443 45.7947C28.9943 45.926 28.5943 45.8453 28.2243 45.7847C26.0643 45.3809 23.8243 45.4112 21.6643 45.8655C21.2143 45.9563 20.7643 46.0774 20.3143 46.0168C19.4243 45.9058 18.7543 45.1587 18.2943 44.3813C17.5343 43.079 17.1943 41.6049 16.9343 40.1309C16.7743 39.2021 15.9343 36.7689 16.5043 35.9814C17.1343 35.0929 19.6443 35.6583 20.5743 35.628C22.2443 35.5776 23.9043 35.3856 25.5443 35.0727C27.3843 34.7092 29.1943 34.1843 30.9443 33.4877L30.9543 33.4776Z" fill="black"/>
<path d="M18.0643 35.8203C22.0297 35.8203 25.2443 32.5748 25.2443 28.5713C25.2443 24.5678 22.0297 21.3223 18.0643 21.3223C14.0989 21.3223 10.8843 24.5678 10.8843 28.5713C10.8843 32.5748 14.0989 35.8203 18.0643 35.8203Z" fill="white" stroke="black" stroke-miterlimit="10"/>
<path d="M35.8858 29.128C36.2251 26.6593 34.9791 24.4448 33.1027 24.1819C31.2264 23.9191 29.4302 25.7073 29.0909 28.1761C28.7516 30.6449 29.9976 32.8593 31.874 33.1222C33.7503 33.385 35.5465 31.5968 35.8858 29.128Z" fill="white" stroke="black" stroke-miterlimit="10"/>
<path d="M36.1543 14.367C35.7443 13.7511 35.1343 13.3069 34.5143 12.9131C30.9043 10.6112 26.1443 9.97518 21.9343 10.4194C19.4443 10.6819 16.9843 11.4694 14.8743 12.8324C13.8243 13.5189 13.0743 14.3771 12.5243 15.3564C15.0943 16.255 18.7043 16.9213 22.7343 17.1232C29.0543 17.4463 34.4643 16.5275 36.4543 14.9929C36.3743 14.7607 36.2743 14.5386 36.1543 14.3569V14.367Z" fill="#AEE25A"/>
<path d="M17.9442 31.6311C18.8279 31.6311 19.5442 30.9079 19.5442 30.0158C19.5442 29.1236 18.8279 28.4004 17.9442 28.4004C17.0606 28.4004 16.3442 29.1236 16.3442 30.0158C16.3442 30.9079 17.0606 31.6311 17.9442 31.6311Z" fill="black"/>
<path d="M33.4542 27.6848C33.7911 27.6848 34.0642 27.4091 34.0642 27.069C34.0642 26.7289 33.7911 26.4531 33.4542 26.4531C33.1173 26.4531 32.8442 26.7289 32.8442 27.069C32.8442 27.4091 33.1173 27.6848 33.4542 27.6848Z" fill="black"/>
<path d="M26.0143 35.8607L26.5743 38.7583L29.6943 37.9708L29.2643 35.1035C29.2643 35.1035 26.9843 35.3761 26.0243 35.8506L26.0143 35.8607Z" fill="white"/>
<path d="M20.3143 45.1496L19.9343 42.3934L21.9343 42.0703L22.5143 44.5338L20.3143 45.1496Z" fill="white"/>
<path d="M8.6943 25.6744C8.6943 25.6744 21.7743 32.9839 38.6843 25.1595C38.6843 25.1595 42.0243 16.7494 41.3143 9.88408C40.6043 3.01874 32.5743 0 25.8243 0C19.0743 0 8.3443 2.8067 5.92429 8.41004C3.50429 14.0134 8.6943 25.6744 8.6943 25.6744Z" fill="black"/>
</svg>
