<svg width="46" height="56" viewBox="0 0 46 56" fill="none" xmlns="http://www.w3.org/2000/svg">
<path d="M14.7244 42.6206C14.7244 42.6206 14.7244 51.5106 15.8044 52.7806C16.8844 54.0506 26.9444 57.0506 30.6144 53.1306C30.6144 53.1306 31.1544 47.3606 30.3944 43.6606C29.6344 39.9606 14.7144 42.6206 14.7144 42.6206H14.7244Z" fill="black"/>
<path d="M23.0744 50.9712C15.3344 50.9712 11.6844 47.6712 11.5344 47.5312L11.3544 47.3612L11.3744 47.1212C13.1844 25.7512 23.1044 23.4512 27.2944 23.4512C28.6644 23.4512 29.5544 23.6912 29.5944 23.7012L29.8144 23.7612L33.0944 30.9112L32.9944 31.1212C30.7244 35.8012 34.1044 48.3812 34.1344 48.5112L34.2544 48.9712L33.8044 49.1212C30.0144 50.3512 26.3944 50.9712 23.0644 50.9712H23.0744Z" fill="#BCBEC0"/>
<path d="M27.2943 23.9512C28.6143 23.9512 29.4644 24.1812 29.4644 24.1812L32.5543 30.9012C30.1743 35.8012 33.6643 48.6412 33.6643 48.6412C29.5243 49.9812 26.0043 50.4712 23.0843 50.4712C15.4543 50.4712 11.8844 47.1612 11.8844 47.1612C13.6444 26.3912 23.0044 23.9512 27.3044 23.9512M27.2943 22.9512C22.9743 22.9512 12.7244 25.3012 10.8744 47.0812L10.8344 47.5712L11.1944 47.9012C11.3544 48.0512 15.1444 51.4712 23.0744 51.4712C26.4644 51.4712 30.1243 50.8412 33.9643 49.5912L34.8743 49.3012L34.6243 48.3812C33.6843 44.9112 31.6344 35.0812 33.4444 31.3412L33.6544 30.9212L33.4543 30.4912L30.3643 23.7712L30.1744 23.3512L29.7243 23.2312C29.7243 23.2312 28.7344 22.9612 27.2943 22.9612V22.9512Z" fill="black"/>
<path d="M12.0542 29.0688C11.1842 29.0988 10.1843 30.0688 9.6143 30.5588C8.6043 31.4388 7.65434 32.3788 6.78434 33.3988C4.87434 35.6388 3.2143 38.4188 3.2443 41.4488C3.2443 41.9588 3.30434 42.4588 3.40434 42.9488C3.40434 42.9788 3.41429 43.0088 3.42429 43.0388C3.77429 44.3688 4.8043 46.0288 6.4343 45.6688C7.4643 45.4488 8.38429 44.7788 8.92429 43.8688C9.76429 42.4488 9.60432 40.6888 9.63432 39.0388C9.67432 36.6688 10.4143 34.8188 11.8243 32.9388C12.3243 32.2788 13.3743 31.5488 13.4543 30.6688C13.4743 30.4288 13.4143 30.1888 13.3143 29.9688C13.1343 29.5988 12.7342 29.1488 12.3042 29.0688C12.2342 29.0588 12.1543 29.0488 12.0743 29.0588L12.0542 29.0688Z" fill="#BE1E2D" stroke="black" stroke-miterlimit="10"/>
<path d="M6.42437 45.5188C7.90449 45.5188 9.10443 43.9026 9.10443 41.9088C9.10443 39.9151 7.90449 38.2988 6.42437 38.2988C4.94425 38.2988 3.74438 39.9151 3.74438 41.9088C3.74438 43.9026 4.94425 45.5188 6.42437 45.5188Z" fill="black"/>
<path d="M9.3643 41.4006C9.4343 41.3906 9.49431 41.3806 9.56431 41.3706C9.93431 41.3006 10.3043 41.2106 10.6142 41.4906C10.8042 41.6706 10.8843 41.9406 10.8843 42.2106C10.8843 43.0406 10.1943 43.8206 9.3643 43.9006C8.6443 43.9706 8.13434 43.6306 7.47434 44.0306C5.55434 45.1906 3.0643 43.7506 1.9343 42.1206C1.3143 41.2306 1.08431 40.1406 1.00431 39.0706C0.914306 37.8506 2.25434 36.7806 3.22434 36.3106C4.07434 35.9006 5.09435 35.6506 6.04435 35.7806C6.99435 35.9006 7.44432 36.4106 7.89432 37.1906C8.02432 37.4206 8.17435 37.6506 8.23435 37.9006C8.49435 38.9706 7.14435 38.7306 6.79435 39.4106C6.54435 39.9006 7.0543 40.5706 7.3043 40.9706C7.5243 41.3206 7.73432 41.4506 8.14432 41.4706C8.55432 41.4806 8.96431 41.4706 9.37431 41.4006H9.3643Z" fill="#8DC63F" stroke="black" stroke-width="0.93" stroke-miterlimit="10"/>
<path opacity="0.51" d="M9.44433 41.5188C9.12433 41.5488 8.80436 41.5688 8.47436 41.5588C8.01436 41.5388 7.77436 41.3888 7.53436 40.9988C7.25436 40.5488 6.67435 39.7988 6.96435 39.2388C7.23435 38.7088 8.02435 38.6588 8.40435 38.2988L8.24432 38.0488C8.24432 38.0488 5.81433 39.6088 3.56433 40.0988C3.56433 40.0988 4.92433 42.5588 6.25433 42.4088C7.13433 42.3088 8.56433 41.8288 9.44433 41.5088V41.5188Z" fill="black"/>
<path d="M34.2245 31.2798C35.0945 31.3098 36.0945 32.2798 36.6645 32.7698C37.6745 33.6498 38.6244 34.5898 39.4944 35.6098C41.4044 37.8498 43.0645 40.6298 43.0345 43.6598C43.0345 44.1698 42.9744 44.6698 42.8744 45.1598C42.8744 45.1898 42.8645 45.2198 42.8545 45.2498C42.5045 46.5798 41.4745 48.2398 39.8445 47.8798C38.8145 47.6598 37.8945 46.9898 37.3545 46.0798C36.5145 44.6598 36.6744 42.8998 36.6444 41.2498C36.6044 38.8798 35.8644 37.0298 34.4544 35.1498C33.9544 34.4898 32.9044 33.7598 32.8244 32.8798C32.8044 32.6398 32.8645 32.3998 32.9645 32.1798C33.1445 31.8098 33.5445 31.3598 33.9745 31.2798C34.0445 31.2698 34.1244 31.2598 34.2044 31.2698L34.2245 31.2798Z" fill="#BE1E2D" stroke="black" stroke-miterlimit="10"/>
<path d="M39.8543 47.7298C41.3344 47.7298 42.5343 46.1135 42.5343 44.1198C42.5343 42.126 41.3344 40.5098 39.8543 40.5098C38.3742 40.5098 37.1743 42.126 37.1743 44.1198C37.1743 46.1135 38.3742 47.7298 39.8543 47.7298Z" fill="black"/>
<path d="M36.9144 43.6096C36.8444 43.5996 36.7844 43.5896 36.7144 43.5796C36.3444 43.5096 35.9744 43.4196 35.6644 43.6996C35.4744 43.8796 35.3944 44.1496 35.3944 44.4196C35.3944 45.2496 36.0844 46.0296 36.9144 46.1096C37.6344 46.1796 38.1443 45.8396 38.8043 46.2396C40.7243 47.3996 43.2144 45.9596 44.3444 44.3296C44.9644 43.4396 45.1944 42.3496 45.2744 41.2796C45.3644 40.0596 44.0243 38.9896 43.0543 38.5196C42.2043 38.1096 41.1844 37.8596 40.2344 37.9896C39.2844 38.1096 38.8344 38.6196 38.3844 39.3996C38.2544 39.6296 38.1044 39.8596 38.0444 40.1096C37.7844 41.1796 39.1344 40.9396 39.4844 41.6196C39.7344 42.1096 39.2244 42.7796 38.9744 43.1796C38.7544 43.5296 38.5444 43.6596 38.1344 43.6796C37.7244 43.6896 37.3144 43.6796 36.9044 43.6096H36.9144Z" fill="#8DC63F" stroke="black" stroke-width="0.93" stroke-miterlimit="10"/>
<path opacity="0.51" d="M36.8345 43.7298C37.1545 43.7598 37.4745 43.7797 37.8045 43.7697C38.2645 43.7497 38.5045 43.5997 38.7445 43.2097C39.0245 42.7597 39.6045 42.0098 39.3145 41.4498C39.0445 40.9198 38.2545 40.8698 37.8745 40.5098L38.0345 40.2598C38.0345 40.2598 40.4645 41.8198 42.7145 42.3098C42.7145 42.3098 41.3545 44.7698 40.0245 44.6198C39.1445 44.5198 37.7145 44.0398 36.8345 43.7198V43.7298Z" fill="black"/>
<path d="M9.49433 35.0393C9.49433 35.0393 26.6443 27.9193 38.9043 35.7393C38.9043 35.7393 41.7043 26.8693 39.6043 21.8493C37.5043 16.8293 26.4143 17.6493 26.4143 17.6493H10.4243C10.4243 17.6493 7.85433 28.9693 9.49433 35.0393Z" fill="black"/>
<path d="M23.0446 47.239C24.1346 47.209 25.2245 46.979 26.2845 46.739C26.8345 46.619 28.3246 46.409 28.6046 45.889C29.1246 44.929 28.6045 43.729 28.3445 42.779C28.0545 41.719 27.9546 40.619 27.9846 39.519C28.0446 37.269 28.6345 35.059 29.3745 32.939C29.4345 32.769 29.4945 32.599 29.5045 32.419C29.5245 31.899 29.1045 31.479 28.6845 31.159C25.8345 29.009 21.6446 28.809 18.6046 30.689C18.2646 30.899 17.9445 31.129 17.6845 31.439C17.3145 31.879 17.1145 32.429 16.9445 32.969C16.5545 34.219 16.2745 35.509 16.0645 36.799C15.8545 38.079 15.7045 39.379 15.8645 40.669C16.2345 43.719 18.4646 46.669 21.6046 47.149C22.0846 47.219 22.5545 47.249 23.0345 47.229L23.0446 47.239Z" fill="black"/>
<path d="M24.6744 47.9888C22.5744 47.9888 19.6544 47.6888 17.6644 46.2388C14.6844 44.0888 13.5244 40.4188 12.7844 37.1088L12.6844 36.6288C12.4944 35.7488 12.3344 34.8688 12.1744 33.9888C12.0044 33.0588 11.8344 32.1388 11.6344 31.2188C11.5344 30.7488 11.4144 30.2788 11.2944 29.8188C11.0444 28.8488 10.7944 27.8388 10.7044 26.7988C10.4344 23.6588 10.4844 21.2488 10.8644 18.9988C11.2144 16.9088 11.9744 14.3088 14.6644 12.6788C16.7144 11.4388 19.2244 10.6588 21.9044 10.4088C22.6944 10.3388 23.4844 10.2988 24.2844 10.2988C28.2644 10.2988 31.9944 11.2188 34.7844 12.8988C35.4044 13.2688 36.0944 13.7388 36.5744 14.3988C37.3644 15.4788 37.3044 17.2288 37.2644 18.6288C37.2544 18.9988 37.2444 19.3488 37.2444 19.6588C37.2744 21.0488 37.1544 22.4388 37.0344 23.7888C36.9844 24.3388 36.9344 24.8988 36.8944 25.4488C36.8144 26.5688 36.5144 27.6688 36.2144 28.7488C36.0544 29.3288 35.8944 29.8988 35.7744 30.4688C34.9444 34.4088 34.2844 38.4188 33.8244 42.3888C33.4544 45.5988 31.6144 47.2588 27.8544 47.7588C26.8044 47.8988 25.7044 47.9788 24.6744 47.9788V47.9888Z" fill="#8DC63F"/>
<path d="M24.2844 10.7806C27.8344 10.7806 31.5644 11.5306 34.5344 13.3206C35.1544 13.6906 35.7644 14.1206 36.1844 14.6906C37.0644 15.9106 36.7344 18.2706 36.7644 19.6806C36.8044 21.6006 36.5544 23.5206 36.4144 25.4306C36.3044 27.0806 35.6544 28.7406 35.3044 30.3806C34.4644 34.3406 33.8144 38.3306 33.3544 42.3406C32.9844 45.5406 31.0944 46.8406 27.7944 47.2906C26.8544 47.4206 25.7844 47.5006 24.6744 47.5006C22.2644 47.5006 19.6744 47.1006 17.9444 45.8506C15.0644 43.7706 13.9644 40.1906 13.2544 37.0006C13.2144 36.8406 13.1844 36.6805 13.1544 36.5206C12.7744 34.7206 12.5044 32.9005 12.1144 31.1105C11.7944 29.6305 11.3144 28.2406 11.1944 26.7506C10.9744 24.1806 10.9244 21.6206 11.3544 19.0706C11.7744 16.6006 12.6544 14.4506 14.9244 13.0906C17.0244 11.8206 19.4744 11.1206 21.9544 10.8906C22.7144 10.8206 23.4944 10.7806 24.2844 10.7806ZM24.2844 9.81055C23.4744 9.81055 22.6644 9.85056 21.8644 9.92056C19.1044 10.1806 16.5344 10.9906 14.4144 12.2606C11.5244 14.0006 10.7344 16.8906 10.3844 18.9106C9.99442 21.2006 9.94444 23.6505 10.2144 26.8305C10.3044 27.9205 10.5644 28.9406 10.8244 29.9306C10.9444 30.3906 11.0544 30.8506 11.1644 31.3106C11.3644 32.2206 11.5344 33.1606 11.6944 34.0606C11.8544 34.9306 12.0144 35.8306 12.2044 36.7206C12.2344 36.8806 12.2744 37.0406 12.3144 37.2106C13.0744 40.6106 14.2744 44.3806 17.3844 46.6306C19.4844 48.1506 22.5144 48.4706 24.6844 48.4706C25.7444 48.4706 26.8644 48.3906 27.9344 48.2506C30.4344 47.9106 33.8144 46.9506 34.3244 42.4506C34.7744 38.5006 35.4344 34.5005 36.2644 30.5805C36.3844 30.0205 36.5344 29.4706 36.6944 28.8806C36.9944 27.7906 37.3044 26.6506 37.3844 25.4906C37.4244 24.9406 37.4744 24.3906 37.5244 23.8406C37.6444 22.4806 37.7645 21.0706 37.7344 19.6506C37.7344 19.3506 37.7344 19.0106 37.7544 18.6506C37.8044 17.1706 37.8644 15.3305 36.9744 14.1105C36.4444 13.3705 35.6944 12.8706 35.0344 12.4806C32.1644 10.7606 28.3444 9.81055 24.2844 9.81055Z" fill="black"/>
<path d="M30.9644 33.7611C31.1944 33.6711 31.4343 33.5711 31.6843 33.6011C32.0443 33.6311 32.3444 33.921 32.5244 34.241C32.9544 34.991 32.9243 35.9311 32.6843 36.7611C32.4443 37.5911 32.0143 38.351 31.6743 39.151C31.2943 40.051 31.0344 41.0011 30.8944 41.9711C30.7244 43.1911 30.7243 44.5411 29.9443 45.5011C29.7843 45.7011 29.5944 45.871 29.3544 45.961C29.0044 46.091 28.6044 46.0111 28.2344 45.9511C26.0744 45.5511 23.8343 45.581 21.6743 46.031C21.2243 46.121 20.7744 46.241 20.3244 46.181C19.4344 46.071 18.7643 45.331 18.3043 44.561C17.5443 43.271 17.2043 41.8111 16.9443 40.3511C16.7843 39.4311 15.9444 37.021 16.5144 36.241C17.1444 35.361 19.6544 35.9211 20.5844 35.8911C22.2544 35.8411 23.9143 35.651 25.5543 35.341C27.3943 34.981 29.2044 34.461 30.9544 33.771L30.9644 33.7611Z" fill="black"/>
<path d="M18.0744 36.0788C22.0398 36.0788 25.2543 32.8642 25.2543 28.8988C25.2543 24.9334 22.0398 21.7188 18.0744 21.7188C14.109 21.7188 10.8944 24.9334 10.8944 28.8988C10.8944 32.8642 14.109 36.0788 18.0744 36.0788Z" fill="white" stroke="black" stroke-miterlimit="10"/>
<path d="M35.9004 29.444C36.2397 26.9987 34.9937 24.8053 33.1174 24.5449C31.241 24.2845 29.4448 26.0558 29.1055 28.5011C28.7662 30.9464 30.0123 33.1397 31.8886 33.4001C33.765 33.6604 35.5611 31.8892 35.9004 29.444Z" fill="white" stroke="black" stroke-miterlimit="10"/>
<path d="M36.1644 14.8301C35.7544 14.2201 35.1444 13.7801 34.5244 13.3901C30.9144 11.1101 26.1544 10.4801 21.9444 10.9201C19.4544 11.1801 16.9944 11.9601 14.8844 13.3101C13.8344 13.9901 13.0844 14.8401 12.5344 15.8101C15.1044 16.7001 18.7143 17.3601 22.7443 17.5601C29.0643 17.8801 34.4744 16.9701 36.4644 15.4501C36.3844 15.2201 36.2844 15.0001 36.1644 14.8201V14.8301Z" fill="#AEE25A"/>
<path d="M17.9545 31.9305C18.8382 31.9305 19.5545 31.2141 19.5545 30.3305C19.5545 29.4468 18.8382 28.7305 17.9545 28.7305C17.0709 28.7305 16.3545 29.4468 16.3545 30.3305C16.3545 31.2141 17.0709 31.9305 17.9545 31.9305Z" fill="black"/>
<path d="M33.4545 28.0188C33.7914 28.0188 34.0645 27.7457 34.0645 27.4088C34.0645 27.0719 33.7914 26.7988 33.4545 26.7988C33.1176 26.7988 32.8445 27.0719 32.8445 27.4088C32.8445 27.7457 33.1176 28.0188 33.4545 28.0188Z" fill="black"/>
<path d="M26.0244 36.1094L26.5844 38.9794L29.7044 38.1994L29.2744 35.3594C29.2744 35.3594 26.9944 35.6294 26.0344 36.0994L26.0244 36.1094Z" fill="white"/>
<path d="M20.3243 45.3195L19.9443 42.5895L21.9443 42.2695L22.5243 44.7095L20.3243 45.3195Z" fill="white"/>
<path d="M8.38438 18.3301C8.11438 18.2701 7.84437 18.2401 7.56437 18.2601C5.12437 18.4601 3.43441 22.0701 3.78441 26.3001C4.14441 30.5401 6.4044 33.8101 8.8444 33.6001C9.1844 33.5701 9.51437 33.4701 9.81437 33.3201L8.37437 18.3201L8.38438 18.3301Z" fill="#BE1E2D" stroke="black" stroke-miterlimit="10"/>
<path d="M40.2244 18.3301C40.4944 18.2701 40.7644 18.2401 41.0444 18.2601C43.4844 18.4601 45.1744 22.0701 44.8244 26.3001C44.4644 30.5401 42.2044 33.8101 39.7644 33.6001C39.4244 33.5701 39.0944 33.4701 38.7944 33.3201L40.2344 18.3201L40.2244 18.3301Z" fill="#BE1E2D" stroke="black" stroke-miterlimit="10"/>
<path d="M38.9843 37.629C38.6043 37.629 38.2842 37.489 38.0542 37.219C37.4842 36.559 37.6243 35.319 37.7943 34.209C37.8143 34.059 37.8343 33.939 37.8442 33.859C38.1042 31.049 38.3143 27.819 37.5443 24.949C37.4143 24.469 36.9942 24.139 36.5142 24.139C36.3542 24.139 36.2042 24.179 36.0542 24.249C32.7242 25.869 29.1542 26.689 25.4242 26.689C20.4042 26.689 16.1042 25.209 13.3842 23.969C13.2442 23.909 13.0942 23.869 12.9442 23.869C12.4842 23.869 12.0942 24.149 11.9542 24.579C11.2442 26.819 11.1442 30.289 11.6442 34.879C11.7042 35.479 11.5442 36.009 11.1742 36.429C10.7842 36.859 10.1843 37.119 9.57427 37.119C8.59427 37.119 7.84429 36.499 7.65429 35.529C5.98429 26.199 3.89429 9.95898 8.46429 5.39898C11.5542 2.30898 18.5442 1.20898 24.0642 1.20898C29.5842 1.20898 36.5743 2.30898 39.6643 5.39898C44.2243 9.95898 42.1343 26.199 40.4843 35.469C40.3843 36.049 40.1042 37.579 39.0742 37.629H39.0042H38.9843Z" fill="#BE1E2D"/>
<path d="M24.0444 1.70047C30.3244 1.70047 36.6043 3.05046 39.3043 5.75046C43.8643 10.3105 41.3445 27.8005 39.9845 35.3905C39.9044 35.8405 39.6643 37.1205 39.0243 37.1505C39.0043 37.1505 38.9944 37.1505 38.9744 37.1505C37.6343 37.1505 38.2543 34.5305 38.3144 33.9005C38.5844 30.9305 38.7844 27.7405 37.9944 24.8205C37.8044 24.1105 37.1743 23.6605 36.4943 23.6605C36.2743 23.6605 36.0443 23.7105 35.8243 23.8205C32.2143 25.5805 28.6543 26.2105 25.4043 26.2105C20.4543 26.2105 16.2143 24.7405 13.5643 23.5405C13.3543 23.4405 13.1343 23.4005 12.9243 23.4005C12.2843 23.4005 11.6843 23.7905 11.4743 24.4405C10.6243 27.1305 10.7343 31.1705 11.1443 34.9405C11.2643 36.0205 10.3943 36.6505 9.55435 36.6505C8.90435 36.6505 8.26435 36.2805 8.11435 35.4505C8.11435 35.4305 8.1144 35.4105 8.1044 35.4005C6.7544 27.8005 4.2344 10.3105 8.7844 5.76047C11.4843 3.06047 17.7644 1.71045 24.0444 1.71045M24.0444 0.730469C18.4344 0.730469 11.2944 1.87046 8.1044 5.06046C3.3844 9.78046 5.48439 26.1905 7.15439 35.5605V35.6305C7.39439 36.8105 8.35436 37.6105 9.56436 37.6105C10.3244 37.6105 11.0343 37.3005 11.5243 36.7605C11.9843 36.2405 12.1943 35.5605 12.1143 34.8305C11.6243 30.3705 11.7243 26.8705 12.4043 24.7305C12.4843 24.4805 12.7243 24.3605 12.9343 24.3605C13.0143 24.3605 13.1043 24.3805 13.1743 24.4105C15.9443 25.6705 20.3144 27.1705 25.4144 27.1705C29.2143 27.1705 32.8643 26.3305 36.2543 24.6805C36.3343 24.6405 36.4143 24.6205 36.5043 24.6205C36.7143 24.6205 36.9843 24.7605 37.0743 25.0705C37.8243 27.8605 37.6143 31.0405 37.3643 33.8105C37.3643 33.8905 37.3344 34.0005 37.3144 34.1405C37.1243 35.4105 36.9943 36.7305 37.6843 37.5405C38.0043 37.9105 38.4645 38.1205 38.9744 38.1205H39.0644C40.4843 38.0605 40.8243 36.1805 40.9343 35.5605C42.6043 26.2005 44.7045 9.78046 39.9845 5.06046C36.7945 1.87046 29.6544 0.730469 24.0444 0.730469Z" fill="black"/>
<path d="M41.4543 7.78077C41.0542 6.3159 40.484 5.11641 39.7237 4.29906C34.3322 -1.43302 14.5965 -1.43302 9.19485 4.29906C8.42462 5.11641 7.86447 6.32652 7.45435 7.81261C10.0051 8.0886 16.9971 10.201 18.2774 24.8497C21.9285 25.9537 26.65 26.5906 31.7115 25.2212C32.7118 11.8782 38.3334 8.5663 41.4443 7.77018L41.4543 7.78077Z" fill="#BCBEC0"/>
<path d="M22.6144 42.0788C11.2644 42.0788 8.74445 30.9388 8.72445 30.8188C8.66445 30.5488 8.83446 30.2788 9.10446 30.2288C9.37446 30.1688 9.64442 30.3388 9.69442 30.6088C9.79442 31.0888 12.3844 42.4488 24.7944 40.9388C37.3144 39.4088 38.7244 32.5988 38.7444 32.5288C38.7944 32.2588 39.0544 32.0788 39.3244 32.1288C39.5944 32.1788 39.7744 32.4388 39.7244 32.7088C39.6644 33.0188 38.1544 40.3188 24.9144 41.9288C24.1044 42.0288 23.3444 42.0688 22.6144 42.0688V42.0788Z" fill="black"/>
<path d="M22.6043 47.8709C11.1843 47.8709 8.68438 33.8109 8.65438 33.6609C8.60438 33.3509 8.80434 33.0609 9.11434 33.0109C9.42434 32.9709 9.71437 33.1709 9.76437 33.4709C9.86437 34.0809 12.4543 48.4709 24.7743 46.5709C37.2043 44.6509 38.6243 36.2509 38.6843 35.8909C38.7343 35.5809 39.0143 35.3709 39.3243 35.4209C39.6343 35.4709 39.8443 35.7509 39.7943 36.0609C39.7843 36.1609 38.2343 45.6408 24.9443 47.6808C24.1243 47.8108 23.3443 47.8709 22.6043 47.8709Z" fill="black"/>
</svg>
