<svg width="48" height="55" viewBox="0 0 48 55" fill="none" xmlns="http://www.w3.org/2000/svg">
<path d="M15.244 42.0712C15.244 42.0712 15.244 51.2977 16.3649 52.6158C17.4858 53.9339 27.9266 57.0474 31.7356 52.979C31.7356 52.979 32.296 46.9906 31.5072 43.1505C30.7184 39.3105 15.2336 42.0712 15.2336 42.0712H15.244Z" fill="black"/>
<path d="M30.5315 22.9333C30.5315 22.9333 14.6627 18.6055 12.2756 46.7832C12.2756 46.7832 19.3642 53.3425 34.8905 48.3192C34.8905 48.3192 31.2684 34.9932 33.7385 29.9077L30.5315 22.9333Z" fill="#9B8579" stroke="black" stroke-miterlimit="10"/>
<path d="M12.4728 28.0078C11.5698 28.0389 10.532 29.0457 9.94041 29.5543C8.89217 30.4676 7.90619 31.4431 7.00326 32.5017C5.02096 34.8265 3.29814 37.7118 3.32927 40.8565C3.32927 41.3858 3.39152 41.9047 3.4953 42.4132C3.4953 42.4444 3.5057 42.4755 3.51608 42.5067C3.87933 43.887 4.94833 45.6099 6.64004 45.2362C7.70903 45.0079 8.66384 44.3126 9.22429 43.3681C10.0961 41.8944 9.93005 40.0677 9.96119 38.3553C10.0027 35.8955 10.7707 33.9755 12.2341 32.0243C12.753 31.3393 13.8427 30.5817 13.9257 29.6684C13.9465 29.4193 13.8843 29.1702 13.7805 28.9419C13.5937 28.5579 13.1785 28.0908 12.7322 28.0078C12.6596 27.9974 12.5766 27.9871 12.4936 27.9975L12.4728 28.0078Z" fill="#EFA536" stroke="black" stroke-miterlimit="10"/>
<path d="M6.62983 45.0807C8.16599 45.0807 9.41128 43.4033 9.41128 41.334C9.41128 39.2648 8.16599 37.5874 6.62983 37.5874C5.09368 37.5874 3.84839 39.2648 3.84839 41.334C3.84839 43.4033 5.09368 45.0807 6.62983 45.0807Z" fill="black"/>
<path d="M9.68093 40.8046C9.75358 40.7943 9.81586 40.7839 9.88851 40.7735C10.2725 40.7009 10.6565 40.6075 10.9782 40.8981C11.1754 41.0849 11.2585 41.3651 11.2585 41.6453C11.2585 42.5067 10.5423 43.3162 9.68093 43.3993C8.93367 43.4719 8.40435 43.1191 7.71936 43.5342C5.72668 44.7381 3.14244 43.2436 1.96967 41.5519C1.3262 40.6282 1.0875 39.4969 1.00447 38.3864C0.911062 37.1202 2.30176 36.0098 3.30848 35.522C4.19066 35.0965 5.24928 34.837 6.23524 34.9719C7.2212 35.0964 7.68821 35.6257 8.15525 36.4352C8.29017 36.6739 8.44587 36.9127 8.50815 37.1721C8.77799 38.2826 7.37688 38.0336 7.01363 38.7393C6.75417 39.2479 7.28348 39.9432 7.54295 40.3584C7.77128 40.7216 7.98919 40.8565 8.41471 40.8773C8.84023 40.8877 9.26579 40.8773 9.69132 40.8046H9.68093Z" fill="#8DC63F" stroke="black" stroke-width="0.93" stroke-miterlimit="10"/>
<path opacity="0.51" d="M9.76422 40.9295C9.4321 40.9606 9.09996 40.9814 8.75746 40.971C8.28005 40.9503 8.03096 40.7946 7.78188 40.3898C7.49128 39.9228 6.88931 39.1444 7.19029 38.5632C7.47051 38.0131 8.29042 37.9612 8.68481 37.5876L8.51878 37.3281C8.51878 37.3281 5.9968 38.9472 3.66162 39.4557C3.66162 39.4557 5.07311 42.0088 6.45346 41.8532C7.36677 41.7494 8.8509 41.2512 9.76422 40.9191V40.9295Z" fill="black"/>
<path d="M35.4821 30.3018C36.385 30.3329 37.4229 31.3396 38.0145 31.8482C39.0627 32.7615 40.0487 33.7371 40.9516 34.7957C42.9339 37.1205 44.6567 40.0057 44.6256 43.1505C44.6256 43.6798 44.5633 44.1987 44.4596 44.7072C44.4596 44.7384 44.4492 44.7695 44.4388 44.8007C44.0755 46.181 43.0065 47.9038 41.3148 47.5302C40.2458 47.3018 39.291 46.6065 38.7306 45.662C37.8588 44.1883 38.0248 42.3617 37.9937 40.6492C37.9522 38.1895 37.1841 36.2695 35.7208 34.3183C35.2018 33.6333 34.1122 32.8757 34.0291 31.9623C34.0084 31.7133 34.0706 31.4642 34.1744 31.2359C34.3612 30.8519 34.7763 30.3848 35.2226 30.3018C35.2953 30.2914 35.3783 30.281 35.4613 30.2914L35.4821 30.3018Z" fill="#EFA536" stroke="black" stroke-miterlimit="10"/>
<path d="M41.3251 47.3845C42.8613 47.3845 44.1066 45.707 44.1066 43.6378C44.1066 41.5685 42.8613 39.8911 41.3251 39.8911C39.789 39.8911 38.5437 41.5685 38.5437 43.6378C38.5437 45.707 39.789 47.3845 41.3251 47.3845Z" fill="black"/>
<path d="M38.2738 43.0981C38.2012 43.0877 38.1389 43.0773 38.0663 43.0669C37.6823 42.9943 37.2983 42.9009 36.9765 43.1915C36.7793 43.3783 36.6963 43.6585 36.6963 43.9388C36.6963 44.8002 37.4124 45.6097 38.2738 45.6927C39.0211 45.7654 39.5504 45.4125 40.2354 45.8277C42.2281 47.0316 44.8123 45.537 45.9851 43.8453C46.6286 42.9216 46.8673 41.7904 46.9503 40.6799C47.0437 39.4137 45.653 38.3032 44.6463 37.8154C43.7641 37.3899 42.7055 37.1304 41.7195 37.2654C40.7336 37.3899 40.2666 37.9192 39.7995 38.7287C39.6646 38.9674 39.5089 39.2061 39.4466 39.4656C39.1768 40.5761 40.5779 40.327 40.9411 41.0328C41.2006 41.5413 40.6713 42.2367 40.4118 42.6518C40.1835 43.0151 39.9656 43.15 39.5401 43.1708C39.1145 43.1811 38.689 43.1707 38.2635 43.0981H38.2738Z" fill="#8DC63F" stroke="black" stroke-width="0.93" stroke-miterlimit="10"/>
<path opacity="0.51" d="M38.1909 43.223C38.523 43.2541 38.8552 43.2748 39.1977 43.2645C39.6751 43.2437 39.9242 43.088 40.1733 42.6833C40.4639 42.2162 41.0658 41.4378 40.7648 40.8566C40.4846 40.3066 39.6647 40.2547 39.2703 39.881L39.4364 39.6216C39.4364 39.6216 41.9583 41.2407 44.2935 41.7492C44.2935 41.7492 42.882 44.3024 41.5017 44.1467C40.5884 44.0429 39.1042 43.5447 38.1909 43.2126V43.223Z" fill="black"/>
<path d="M23.8683 46.8659C24.9996 46.8348 26.1309 46.5961 27.231 46.347C27.8018 46.2225 29.3482 46.0045 29.6388 45.4648C30.1785 44.4685 29.6388 43.223 29.369 42.2371C29.068 41.137 28.9642 39.9953 28.9954 38.8537C29.0576 36.5185 29.67 34.2248 30.438 32.0246C30.5003 31.8481 30.5625 31.6717 30.5729 31.4849C30.5937 30.9452 30.1578 30.5093 29.7219 30.1772C26.764 27.9458 22.4153 27.7382 19.2603 29.6894C18.9074 29.9073 18.5753 30.146 18.3055 30.4678C17.9214 30.9244 17.7139 31.4953 17.5375 32.0557C17.1327 33.353 16.8421 34.6919 16.6241 36.0307C16.4062 37.3592 16.2505 38.7084 16.4165 40.0472C16.8006 43.2127 19.115 46.2743 22.3738 46.7725C22.872 46.8452 23.3598 46.8763 23.858 46.8556L23.8683 46.8659Z" fill="black"/>
<path d="M25.5704 47.6441C23.3909 47.6441 20.3604 47.3328 18.2951 45.8279C15.2023 43.5965 13.9983 39.7876 13.2303 36.3523L13.1369 35.9267C12.9294 34.9407 12.7633 34.0275 12.5972 33.1141C12.4208 32.1489 12.2444 31.1941 12.0368 30.2393C11.933 29.7515 11.8085 29.2637 11.6839 28.7862C11.4245 27.7795 11.165 26.7313 11.0716 25.652C10.7913 22.3931 10.8433 19.8919 11.2377 17.5567C11.6009 15.3876 12.3897 12.6891 15.1815 10.9974C17.3091 9.7105 19.9141 8.90096 22.6956 8.64149C23.5051 8.56884 24.3354 8.52734 25.1657 8.52734C29.2963 8.52734 33.1675 9.49253 36.0631 11.2361C36.7066 11.6201 37.4228 12.1079 37.9209 12.7929C38.7409 13.9138 38.6785 15.73 38.637 17.183C38.6266 17.567 38.6163 17.9407 38.6163 18.252C38.6474 19.6947 38.5229 21.1477 38.3983 22.5488C38.3464 23.1196 38.2945 23.7008 38.253 24.2716C38.17 25.434 37.8586 26.5756 37.5473 27.6965C37.3812 28.2985 37.2152 28.8901 37.0906 29.4817C36.2292 33.5708 35.5443 37.7326 35.0668 41.8529C34.6828 45.1844 32.7731 46.9072 28.8708 47.4262C27.7914 47.5715 26.6498 47.6441 25.5704 47.6441Z" fill="#8DC63F"/>
<path d="M25.1554 9.02573C28.8398 9.02573 32.711 9.8041 35.7934 11.6619C36.4369 12.0459 37.07 12.4921 37.5059 13.0837C38.4192 14.3499 38.0767 16.7993 38.1079 18.2627C38.1494 20.2554 37.8899 22.248 37.7446 24.2303C37.6304 25.9428 36.9558 27.6656 36.5926 29.3677C35.7208 33.4776 35.0461 37.6187 34.5687 41.7805C34.1847 45.1016 32.2232 46.4508 28.7983 46.9179C27.8227 47.0528 26.7122 47.1358 25.5601 47.1358C23.0589 47.1358 20.3709 46.7207 18.5754 45.4233C15.5864 43.2646 14.4447 39.5491 13.7079 36.2383C13.6663 36.0723 13.6352 35.9062 13.604 35.7401C13.2096 33.872 12.9294 31.9831 12.5247 30.1254C12.1926 28.5893 11.6944 27.1467 11.5699 25.6003C11.3415 22.933 11.2896 20.2761 11.7359 17.6295C12.1718 15.066 13.0851 12.8347 15.4411 11.4232C17.6206 10.1051 20.1633 9.37859 22.7372 9.13988C23.526 9.06723 24.3355 9.02573 25.1554 9.02573ZM25.1554 8.01904C24.3147 8.01904 23.4741 8.06054 22.6438 8.13319C19.7793 8.40303 17.112 9.24366 14.9117 10.5617C11.9123 12.3676 11.0925 15.367 10.7292 17.4635C10.3245 19.8402 10.2725 22.3829 10.5527 25.6833C10.6461 26.8146 10.9264 27.8732 11.1859 28.9007C11.3104 29.3781 11.4245 29.8555 11.5387 30.3329C11.7463 31.2774 11.9227 32.253 12.0888 33.187C12.2549 34.09 12.4209 35.024 12.6181 35.9477C12.6493 36.1138 12.6908 36.2798 12.7323 36.4562C13.521 39.985 14.7665 43.8977 17.9942 46.2328C20.1737 47.8104 23.3184 48.1425 25.5705 48.1425C26.6707 48.1425 27.8331 48.0595 28.9436 47.9142C31.5382 47.5613 35.0462 46.565 35.5755 41.8946C36.0425 37.7951 36.7275 33.6437 37.5889 29.5753C37.7135 28.9941 37.8691 28.4232 38.0352 27.8109C38.3466 26.6796 38.6683 25.4965 38.7513 24.2926C38.7928 23.7218 38.8447 23.1509 38.8966 22.5801C39.0211 21.1686 39.1457 19.7053 39.1145 18.2315C39.1145 17.9202 39.1146 17.5673 39.1353 17.1937C39.1872 15.6576 39.2495 13.748 38.3258 12.4818C37.7653 11.7138 36.9973 11.1949 36.3123 10.7901C33.3337 9.00499 29.3691 8.01904 25.1554 8.01904Z" fill="black"/>
<path d="M32.0884 32.8758C32.3271 32.7824 32.5762 32.6786 32.8356 32.7097C33.2093 32.7409 33.5206 33.0419 33.7074 33.374C34.1537 34.1524 34.1226 35.1279 33.8735 35.9893C33.6244 36.8508 33.1781 37.6395 32.8253 38.4698C32.4309 39.4039 32.1611 40.3899 32.0158 41.3966C31.8393 42.6628 31.8393 44.0639 31.0298 45.0602C30.8637 45.2678 30.6665 45.4442 30.4174 45.5376C30.0542 45.6725 29.639 45.5895 29.255 45.5272C27.0133 45.1121 24.6885 45.1432 22.4467 45.6103C21.9797 45.7037 21.5127 45.8283 21.0456 45.766C20.1219 45.6518 19.4265 44.8838 18.9491 44.0847C18.1604 42.7458 17.8075 41.2305 17.5377 39.7153C17.3716 38.7604 16.4998 36.2592 17.0914 35.4497C17.7452 34.5364 20.3503 35.1175 21.3155 35.0864C23.0487 35.0345 24.7715 34.8373 26.4736 34.5156C28.3832 34.142 30.2618 33.6023 32.078 32.8862L32.0884 32.8758Z" fill="black"/>
<path d="M18.7207 35.284C22.8362 35.284 26.1725 31.9477 26.1725 27.8322C26.1725 23.7166 22.8362 20.3804 18.7207 20.3804C14.6051 20.3804 11.2688 23.7166 11.2688 27.8322C11.2688 31.9477 14.6051 35.284 18.7207 35.284Z" fill="white" stroke="black" stroke-miterlimit="10"/>
<path d="M37.2142 28.3941C37.5663 25.8562 36.2731 23.5799 34.3257 23.3096C32.3783 23.0394 30.5142 24.8777 30.1621 27.4155C29.8099 29.9534 31.1031 32.2298 33.0505 32.5C34.9979 32.7702 36.862 30.9319 37.2142 28.3941Z" fill="white" stroke="black" stroke-miterlimit="10"/>
<path d="M37.4852 13.2394C37.0597 12.6063 36.4266 12.1496 35.7831 11.7449C32.0365 9.37858 27.0963 8.72476 22.727 9.18141C20.1427 9.45126 17.5896 10.2607 15.3997 11.6618C14.3099 12.3676 13.5315 13.2498 12.9607 14.2565C15.628 15.1802 19.3747 15.8652 23.5572 16.0727C30.1165 16.4048 35.7312 15.4604 37.7966 13.8829C37.7135 13.6442 37.6098 13.4158 37.4852 13.229V13.2394Z" fill="#AEE25A"/>
<path d="M18.5961 30.9764C19.5132 30.9764 20.2567 30.2329 20.2567 29.3158C20.2567 28.3987 19.5132 27.6553 18.5961 27.6553C17.679 27.6553 16.9355 28.3987 16.9355 29.3158C16.9355 30.2329 17.679 30.9764 18.5961 30.9764Z" fill="black"/>
<path d="M34.6829 26.9185C35.0325 26.9185 35.316 26.6351 35.316 26.2854C35.316 25.9358 35.0325 25.6523 34.6829 25.6523C34.3332 25.6523 34.0498 25.9358 34.0498 26.2854C34.0498 26.6351 34.3332 26.9185 34.6829 26.9185Z" fill="black"/>
<path d="M26.9612 35.3253L27.5424 38.3039L30.7805 37.4943L30.3342 34.5469C30.3342 34.5469 27.9679 34.8271 26.9716 35.3149L26.9612 35.3253Z" fill="white"/>
<path d="M21.0455 44.8735L20.6511 42.0401L22.7372 41.708L23.3391 44.2404L21.0455 44.8735Z" fill="white"/>
<path d="M41.1498 20.7735C41.4798 19.8235 41.4198 18.8435 41.0598 17.9835C41.8298 17.5235 42.4598 16.8235 42.7698 15.9135C43.4098 14.0835 42.6198 12.1035 40.9898 11.1835C41.0398 9.5035 40.0398 7.91352 38.3698 7.32352C37.7698 7.11352 37.1598 7.07347 36.5698 7.15347C36.5698 5.52347 35.5698 3.99349 33.9398 3.42349C33.3398 3.21349 32.7198 3.17351 32.1298 3.25351C31.6798 2.40351 30.9298 1.7135 29.9598 1.3735C28.8998 1.0035 27.7798 1.12347 26.8498 1.59347C26.4398 1.18347 25.9498 0.843524 25.3698 0.643524C23.9298 0.133524 22.3998 0.533519 21.3598 1.51352C20.9098 0.943519 20.3098 0.48348 19.5698 0.22348C17.7498 -0.41652 15.7698 0.36349 14.8498 1.98349C13.1398 1.89349 11.5098 2.91348 10.9198 4.60348C10.6698 5.32348 10.6498 6.06351 10.7998 6.75351C9.84981 7.18351 9.07977 7.97348 8.69977 9.03348C8.17977 10.5235 8.60981 12.1135 9.66981 13.1535C8.56981 13.5335 7.63979 14.3835 7.21979 15.5635C6.53979 17.5135 7.4898 19.6335 9.3498 20.4535C9.3498 22.0935 10.3498 23.6235 11.9798 24.1935C12.7898 24.4735 13.6198 24.4735 14.3898 24.2535C14.5198 25.7535 15.4998 27.1135 17.0098 27.6435C18.6098 28.2035 20.3198 27.6635 21.3498 26.4235C21.4098 26.4335 21.4698 26.4435 21.5398 26.4535C21.9998 27.1035 22.6498 27.6235 23.4498 27.9035C24.8398 28.3935 26.2998 28.0435 27.3298 27.1435C27.5098 27.2335 27.6798 27.3335 27.8798 27.4035C29.8198 28.0835 31.9198 27.1435 32.7598 25.3135C33.0598 25.1935 33.3498 25.0635 33.6098 24.9335C34.9598 25.0435 36.2698 24.4435 37.0798 23.3635C38.8298 23.5135 40.5298 22.4835 41.1398 20.7435L41.1498 20.7735Z" fill="black"/>
</svg>
